<svg xmlns="http://www.w3.org/2000/svg" xmlns:xlink="http://www.w3.org/1999/xlink" width="500" zoomAndPan="magnify" viewBox="0 0 375 374.999991" height="500" preserveAspectRatio="xMidYMid meet" version="1.0"><defs><g/><clipPath id="1956eda529"><path d="M 185 107 L 349.871094 107 L 349.871094 256 L 185 256 Z M 185 107 " clip-rule="nonzero"/></clipPath></defs><path fill="#d9d9d9" d="M 252.695312 66.140625 L 237.921875 51.367188 C 193.296875 6.738281 146.382812 24.53125 145.789062 24.777344 C 145.789062 24.777344 162.582031 28.644531 176.386719 40.257812 C 187.542969 49.644531 188.179688 66.617188 177.871094 76.925781 L 180.535156 79.589844 L 91.761719 168.363281 L 114.152344 190.757812 L 202.925781 101.984375 L 205.59375 104.648438 L 216.644531 93.59375 C 218.300781 95.242188 219.800781 96.707031 221.050781 97.914062 C 223.113281 99.902344 226.382812 99.875 228.410156 97.851562 L 252.695312 73.5625 C 254.746094 71.511719 254.746094 68.191406 252.695312 66.140625 Z M 271.417969 84.859375 L 264.136719 77.582031 C 261.40625 74.851562 256.976562 74.851562 254.246094 77.582031 L 232.757812 99.070312 C 230.027344 101.800781 230.027344 106.230469 232.757812 108.960938 L 240.035156 116.238281 C 242.769531 118.96875 247.195312 118.96875 249.925781 116.238281 L 271.417969 94.75 C 274.148438 92.019531 274.148438 87.589844 271.417969 84.859375 Z M 33.816406 221.171875 C 25.496094 228.636719 25.148438 241.558594 33.054688 249.460938 L 33.054688 249.464844 C 40.960938 257.367188 53.878906 257.023438 61.347656 248.699219 L 111.417969 194.289062 L 88.226562 171.097656 L 33.816406 221.171875 " fill-opacity="1" fill-rule="nonzero"/><path fill="#ffffff" d="M 173.59375 222.679688 L 149.476562 222.679688 L 149.476562 198.5625 L 173.59375 198.5625 L 173.59375 222.679688 " fill-opacity="1" fill-rule="nonzero"/><path fill="#ffffff" d="M 209.101562 222.679688 L 184.984375 222.679688 L 184.984375 198.5625 L 209.101562 198.5625 L 209.101562 222.679688 " fill-opacity="1" fill-rule="nonzero"/><path fill="#ffffff" d="M 173.59375 255.175781 L 149.476562 255.175781 L 149.476562 231.054688 L 173.59375 231.054688 L 173.59375 255.175781 " fill-opacity="1" fill-rule="nonzero"/><path fill="#ffffff" d="M 209.101562 255.175781 L 184.984375 255.175781 L 184.984375 231.054688 L 209.101562 231.054688 L 209.101562 255.175781 " fill-opacity="1" fill-rule="nonzero"/><g clip-path="url(#1956eda529)"><path fill="#bc996f" d="M 291.34375 196.652344 L 291.34375 163.375 L 297.871094 158.707031 L 267.523438 140.324219 L 267.523438 181.472656 L 264.613281 178.5625 L 264.570312 169.875 L 202.46875 107.773438 L 185.175781 125.066406 L 315.289062 255.175781 L 349.871094 255.175781 L 291.34375 196.652344 " fill-opacity="1" fill-rule="nonzero"/></g><g fill="#bc996f" fill-opacity="1"><g transform="translate(132.287895, 274.122376)"><g><path d="M 66.1875 -53.234375 L 66.1875 -85.34375 L 83 -85.34375 L 83 0 L 66.1875 0 L 66.1875 -38.875 L 27.953125 -38.875 L 27.953125 0 L 11.09375 0 L 11.09375 -85.34375 L 27.953125 -85.34375 L 27.953125 -53.234375 Z M 66.1875 -53.234375 "/></g></g></g></svg>