<svg xmlns="http://www.w3.org/2000/svg" xmlns:xlink="http://www.w3.org/1999/xlink" width="500" zoomAndPan="magnify" viewBox="0 0 375 374.999991" height="500" preserveAspectRatio="xMidYMid meet" version="1.0"><defs><g/><clipPath id="c5d10013d0"><path d="M 185 107 L 349.871094 107 L 349.871094 256 L 185 256 Z M 185 107 " clip-rule="nonzero"/></clipPath></defs><path fill="#d9d9d9" d="M 252.695312 66.140625 L 237.921875 51.367188 C 193.296875 6.738281 146.382812 24.53125 145.789062 24.777344 C 145.789062 24.777344 162.582031 28.644531 176.386719 40.257812 C 187.542969 49.644531 188.179688 66.617188 177.871094 76.925781 L 180.535156 79.589844 L 91.761719 168.363281 L 114.152344 190.757812 L 202.925781 101.984375 L 205.59375 104.648438 L 216.644531 93.59375 C 218.300781 95.242188 219.800781 96.707031 221.050781 97.914062 C 223.113281 99.902344 226.382812 99.875 228.410156 97.851562 L 252.695312 73.5625 C 254.746094 71.511719 254.746094 68.191406 252.695312 66.140625 Z M 271.417969 84.859375 L 264.136719 77.582031 C 261.40625 74.851562 256.976562 74.851562 254.246094 77.582031 L 232.757812 99.070312 C 230.027344 101.800781 230.027344 106.230469 232.757812 108.960938 L 240.035156 116.238281 C 242.769531 118.96875 247.195312 118.96875 249.925781 116.238281 L 271.417969 94.75 C 274.148438 92.019531 274.148438 87.589844 271.417969 84.859375 Z M 33.816406 221.171875 C 25.496094 228.636719 25.148438 241.558594 33.054688 249.460938 L 33.054688 249.464844 C 40.960938 257.367188 53.878906 257.023438 61.347656 248.699219 L 111.417969 194.289062 L 88.226562 171.097656 L 33.816406 221.171875 " fill-opacity="1" fill-rule="nonzero"/><path fill="#ffffff" d="M 173.59375 222.679688 L 149.476562 222.679688 L 149.476562 198.5625 L 173.59375 198.5625 L 173.59375 222.679688 " fill-opacity="1" fill-rule="nonzero"/><path fill="#ffffff" d="M 209.101562 222.679688 L 184.984375 222.679688 L 184.984375 198.5625 L 209.101562 198.5625 L 209.101562 222.679688 " fill-opacity="1" fill-rule="nonzero"/><path fill="#ffffff" d="M 173.59375 255.175781 L 149.476562 255.175781 L 149.476562 231.054688 L 173.59375 231.054688 L 173.59375 255.175781 " fill-opacity="1" fill-rule="nonzero"/><path fill="#ffffff" d="M 209.101562 255.175781 L 184.984375 255.175781 L 184.984375 231.054688 L 209.101562 231.054688 L 209.101562 255.175781 " fill-opacity="1" fill-rule="nonzero"/><g clip-path="url(#c5d10013d0)"><path fill="#bc996f" d="M 291.34375 196.652344 L 291.34375 163.375 L 297.871094 158.707031 L 267.523438 140.324219 L 267.523438 181.472656 L 264.613281 178.5625 L 264.570312 169.875 L 202.46875 107.773438 L 185.175781 125.066406 L 315.289062 255.175781 L 349.871094 255.175781 L 291.34375 196.652344 " fill-opacity="1" fill-rule="nonzero"/></g><g fill="#ffffff" fill-opacity="1"><g transform="translate(106.808625, 317.542881)"><g><path d="M 34.71875 -34.375 L 34.71875 0 L 29.8125 0 L 29.8125 -15.328125 L 10.0625 -15.328125 L 10.0625 0 L 5.15625 0 L 5.15625 -34.375 L 10.0625 -34.375 L 10.0625 -19.59375 L 29.8125 -19.59375 L 29.8125 -34.375 Z M 34.71875 -34.375 "/></g></g></g><g fill="#ffffff" fill-opacity="1"><g transform="translate(146.678189, 317.542881)"><g><path d="M 18.3125 -11.890625 L 18.3125 0 L 13.453125 0 L 13.453125 -11.984375 L -0.203125 -34.375 L 5.0625 -34.375 L 16.0625 -16.25 L 27.109375 -34.375 L 31.96875 -34.375 Z M 18.3125 -11.890625 "/></g></g></g><g fill="#ffffff" fill-opacity="1"><g transform="translate(178.446169, 317.542881)"><g><path d="M 5.15625 -34.375 L 19.640625 -34.375 C 23.273438 -34.375 26.5 -33.65625 29.3125 -32.21875 C 32.132812 -30.78125 34.320312 -28.757812 35.875 -26.15625 C 37.425781 -23.550781 38.203125 -20.5625 38.203125 -17.1875 C 38.203125 -13.8125 37.425781 -10.820312 35.875 -8.21875 C 34.320312 -5.625 32.132812 -3.601562 29.3125 -2.15625 C 26.5 -0.71875 23.273438 0 19.640625 0 L 5.15625 0 Z M 19.34375 -4.265625 C 22.125 -4.265625 24.570312 -4.804688 26.6875 -5.890625 C 28.800781 -6.972656 30.429688 -8.488281 31.578125 -10.4375 C 32.722656 -12.382812 33.296875 -14.632812 33.296875 -17.1875 C 33.296875 -19.738281 32.722656 -21.988281 31.578125 -23.9375 C 30.429688 -25.882812 28.800781 -27.398438 26.6875 -28.484375 C 24.570312 -29.566406 22.125 -30.109375 19.34375 -30.109375 L 10.0625 -30.109375 L 10.0625 -4.265625 Z M 19.34375 -4.265625 "/></g></g></g><g fill="#ffffff" fill-opacity="1"><g transform="translate(219.003132, 317.542881)"><g><path d="M 30.109375 -4.265625 L 30.109375 0 L 5.15625 0 L 5.15625 -34.375 L 29.421875 -34.375 L 29.421875 -30.109375 L 10.0625 -30.109375 L 10.0625 -19.546875 L 27.3125 -19.546875 L 27.3125 -15.375 L 10.0625 -15.375 L 10.0625 -4.265625 Z M 30.109375 -4.265625 "/></g></g></g><g fill="#ffffff" fill-opacity="1"><g transform="translate(119.081547, 341.69476)"><g><path d="M 4.5625 -7.96875 C 5.125 -7.96875 5.671875 -7.859375 6.203125 -7.640625 C 6.734375 -7.429688 7.191406 -7.132812 7.578125 -6.75 L 6.796875 -5.78125 C 6.503906 -6.082031 6.160156 -6.320312 5.765625 -6.5 C 5.378906 -6.6875 4.984375 -6.78125 4.578125 -6.78125 C 3.785156 -6.78125 3.113281 -6.507812 2.5625 -5.96875 C 2.019531 -5.425781 1.75 -4.769531 1.75 -4 C 1.75 -3.207031 2.019531 -2.539062 2.5625 -2 C 3.113281 -1.457031 3.785156 -1.1875 4.578125 -1.1875 C 5.398438 -1.1875 6.140625 -1.5 6.796875 -2.125 L 7.59375 -1.25 C 7.175781 -0.84375 6.695312 -0.519531 6.15625 -0.28125 C 5.613281 -0.0507812 5.066406 0.0625 4.515625 0.0625 C 3.347656 0.0625 2.367188 -0.320312 1.578125 -1.09375 C 0.785156 -1.875 0.390625 -2.835938 0.390625 -3.984375 C 0.390625 -5.109375 0.789062 -6.050781 1.59375 -6.8125 C 2.394531 -7.582031 3.382812 -7.96875 4.5625 -7.96875 Z M 4.5625 -7.96875 "/></g></g></g><g fill="#ffffff" fill-opacity="1"><g transform="translate(130.230293, 341.69476)"><g><path d="M 1.59375 -6.8125 C 2.40625 -7.582031 3.40625 -7.96875 4.59375 -7.96875 C 5.78125 -7.96875 6.773438 -7.582031 7.578125 -6.8125 C 8.390625 -6.050781 8.796875 -5.101562 8.796875 -3.96875 C 8.796875 -2.832031 8.390625 -1.875 7.578125 -1.09375 C 6.773438 -0.320312 5.78125 0.0625 4.59375 0.0625 C 3.40625 0.0625 2.40625 -0.320312 1.59375 -1.09375 C 0.789062 -1.875 0.390625 -2.832031 0.390625 -3.96875 C 0.390625 -5.101562 0.789062 -6.050781 1.59375 -6.8125 Z M 4.609375 -6.765625 C 3.816406 -6.765625 3.140625 -6.492188 2.578125 -5.953125 C 2.023438 -5.421875 1.75 -4.757812 1.75 -3.96875 C 1.75 -3.1875 2.03125 -2.519531 2.59375 -1.96875 C 3.15625 -1.414062 3.828125 -1.140625 4.609375 -1.140625 C 5.390625 -1.140625 6.054688 -1.414062 6.609375 -1.96875 C 7.160156 -2.519531 7.4375 -3.1875 7.4375 -3.96875 C 7.4375 -4.757812 7.160156 -5.421875 6.609375 -5.953125 C 6.054688 -6.492188 5.390625 -6.765625 4.609375 -6.765625 Z M 4.609375 -6.765625 "/></g></g></g><g fill="#ffffff" fill-opacity="1"><g transform="translate(142.660346, 341.69476)"><g><path d="M 7.921875 0 L 6.609375 0 L 2.375 -5.6875 L 2.375 0 L 1.046875 0 L 1.046875 -7.9375 L 2.359375 -7.9375 L 6.609375 -2.234375 L 6.609375 -7.9375 L 7.921875 -7.9375 Z M 7.921875 0 "/></g></g></g><g fill="#ffffff" fill-opacity="1"><g transform="translate(154.886297, 341.69476)"><g><path d="M 6.46875 -6.734375 L 3.953125 -6.734375 L 3.953125 0 L 2.609375 0 L 2.609375 -6.734375 L 0.109375 -6.734375 L 0.109375 -7.9375 L 6.46875 -7.9375 Z M 6.46875 -6.734375 "/></g></g></g><g fill="#ffffff" fill-opacity="1"><g transform="translate(164.697049, 341.69476)"><g><path d="M 6.078125 0 L 4.625 -2.40625 C 4.550781 -2.394531 4.429688 -2.390625 4.265625 -2.390625 L 2.375 -2.390625 L 2.375 0 L 1.046875 0 L 1.046875 -7.9375 L 4.265625 -7.9375 C 5.273438 -7.9375 6.0625 -7.695312 6.625 -7.21875 C 7.1875 -6.75 7.46875 -6.085938 7.46875 -5.234375 C 7.46875 -4.597656 7.320312 -4.054688 7.03125 -3.609375 C 6.75 -3.171875 6.34375 -2.851562 5.8125 -2.65625 L 7.59375 0 Z M 2.375 -3.59375 L 4.265625 -3.59375 C 5.546875 -3.59375 6.1875 -4.128906 6.1875 -5.203125 C 6.1875 -6.222656 5.546875 -6.734375 4.265625 -6.734375 L 2.375 -6.734375 Z M 2.375 -3.59375 "/></g></g></g><g fill="#ffffff" fill-opacity="1"><g transform="translate(176.14061, 341.69476)"><g><path d="M 6.171875 -1.796875 L 2.171875 -1.796875 L 1.40625 0 L 0.015625 0 L 3.515625 -7.9375 L 4.890625 -7.9375 L 8.359375 0 L 6.9375 0 Z M 5.65625 -2.984375 L 4.15625 -6.515625 L 2.671875 -2.984375 Z M 5.65625 -2.984375 "/></g></g></g><g fill="#ffffff" fill-opacity="1"><g transform="translate(187.754255, 341.69476)"><g><path d="M 4.5625 -7.96875 C 5.125 -7.96875 5.671875 -7.859375 6.203125 -7.640625 C 6.734375 -7.429688 7.191406 -7.132812 7.578125 -6.75 L 6.796875 -5.78125 C 6.503906 -6.082031 6.160156 -6.320312 5.765625 -6.5 C 5.378906 -6.6875 4.984375 -6.78125 4.578125 -6.78125 C 3.785156 -6.78125 3.113281 -6.507812 2.5625 -5.96875 C 2.019531 -5.425781 1.75 -4.769531 1.75 -4 C 1.75 -3.207031 2.019531 -2.539062 2.5625 -2 C 3.113281 -1.457031 3.785156 -1.1875 4.578125 -1.1875 C 5.398438 -1.1875 6.140625 -1.5 6.796875 -2.125 L 7.59375 -1.25 C 7.175781 -0.84375 6.695312 -0.519531 6.15625 -0.28125 C 5.613281 -0.0507812 5.066406 0.0625 4.515625 0.0625 C 3.347656 0.0625 2.367188 -0.320312 1.578125 -1.09375 C 0.785156 -1.875 0.390625 -2.835938 0.390625 -3.984375 C 0.390625 -5.109375 0.789062 -6.050781 1.59375 -6.8125 C 2.394531 -7.582031 3.382812 -7.96875 4.5625 -7.96875 Z M 4.5625 -7.96875 "/></g></g></g><g fill="#ffffff" fill-opacity="1"><g transform="translate(198.903004, 341.69476)"><g><path d="M 6.46875 -6.734375 L 3.953125 -6.734375 L 3.953125 0 L 2.609375 0 L 2.609375 -6.734375 L 0.109375 -6.734375 L 0.109375 -7.9375 L 6.46875 -7.9375 Z M 6.46875 -6.734375 "/></g></g></g><g fill="#ffffff" fill-opacity="1"><g transform="translate(208.713752, 341.69476)"><g><path d="M 1.59375 -6.8125 C 2.40625 -7.582031 3.40625 -7.96875 4.59375 -7.96875 C 5.78125 -7.96875 6.773438 -7.582031 7.578125 -6.8125 C 8.390625 -6.050781 8.796875 -5.101562 8.796875 -3.96875 C 8.796875 -2.832031 8.390625 -1.875 7.578125 -1.09375 C 6.773438 -0.320312 5.78125 0.0625 4.59375 0.0625 C 3.40625 0.0625 2.40625 -0.320312 1.59375 -1.09375 C 0.789062 -1.875 0.390625 -2.832031 0.390625 -3.96875 C 0.390625 -5.101562 0.789062 -6.050781 1.59375 -6.8125 Z M 4.609375 -6.765625 C 3.816406 -6.765625 3.140625 -6.492188 2.578125 -5.953125 C 2.023438 -5.421875 1.75 -4.757812 1.75 -3.96875 C 1.75 -3.1875 2.03125 -2.519531 2.59375 -1.96875 C 3.15625 -1.414062 3.828125 -1.140625 4.609375 -1.140625 C 5.390625 -1.140625 6.054688 -1.414062 6.609375 -1.96875 C 7.160156 -2.519531 7.4375 -3.1875 7.4375 -3.96875 C 7.4375 -4.757812 7.160156 -5.421875 6.609375 -5.953125 C 6.054688 -6.492188 5.390625 -6.765625 4.609375 -6.765625 Z M 4.609375 -6.765625 "/></g></g></g><g fill="#ffffff" fill-opacity="1"><g transform="translate(221.14381, 341.69476)"><g><path d="M 6.078125 0 L 4.625 -2.40625 C 4.550781 -2.394531 4.429688 -2.390625 4.265625 -2.390625 L 2.375 -2.390625 L 2.375 0 L 1.046875 0 L 1.046875 -7.9375 L 4.265625 -7.9375 C 5.273438 -7.9375 6.0625 -7.695312 6.625 -7.21875 C 7.1875 -6.75 7.46875 -6.085938 7.46875 -5.234375 C 7.46875 -4.597656 7.320312 -4.054688 7.03125 -3.609375 C 6.75 -3.171875 6.34375 -2.851562 5.8125 -2.65625 L 7.59375 0 Z M 2.375 -3.59375 L 4.265625 -3.59375 C 5.546875 -3.59375 6.1875 -4.128906 6.1875 -5.203125 C 6.1875 -6.222656 5.546875 -6.734375 4.265625 -6.734375 L 2.375 -6.734375 Z M 2.375 -3.59375 "/></g></g></g><g fill="#ffffff" fill-opacity="1"><g transform="translate(232.587375, 341.69476)"><g><path d="M 3.65625 -8 C 4.6875 -8 5.613281 -7.726562 6.4375 -7.1875 L 5.875 -6 C 5.0625 -6.488281 4.285156 -6.734375 3.546875 -6.734375 C 3.148438 -6.734375 2.832031 -6.660156 2.59375 -6.515625 C 2.363281 -6.378906 2.25 -6.175781 2.25 -5.90625 C 2.25 -5.644531 2.351562 -5.421875 2.5625 -5.234375 C 2.78125 -5.046875 3.046875 -4.910156 3.359375 -4.828125 C 3.679688 -4.742188 4.023438 -4.632812 4.390625 -4.5 C 4.765625 -4.363281 5.109375 -4.222656 5.421875 -4.078125 C 5.742188 -3.929688 6.007812 -3.703125 6.21875 -3.390625 C 6.425781 -3.078125 6.53125 -2.695312 6.53125 -2.25 C 6.53125 -1.550781 6.25 -0.992188 5.6875 -0.578125 C 5.132812 -0.160156 4.421875 0.046875 3.546875 0.046875 C 2.929688 0.046875 2.34375 -0.0664062 1.78125 -0.296875 C 1.21875 -0.523438 0.722656 -0.832031 0.296875 -1.21875 L 0.875 -2.375 C 1.269531 -2 1.707031 -1.710938 2.1875 -1.515625 C 2.675781 -1.316406 3.132812 -1.21875 3.5625 -1.21875 C 4.03125 -1.21875 4.394531 -1.300781 4.65625 -1.46875 C 4.914062 -1.632812 5.046875 -1.867188 5.046875 -2.171875 C 5.046875 -2.453125 4.9375 -2.679688 4.71875 -2.859375 C 4.507812 -3.046875 4.242188 -3.179688 3.921875 -3.265625 C 3.609375 -3.359375 3.265625 -3.46875 2.890625 -3.59375 C 2.523438 -3.71875 2.179688 -3.847656 1.859375 -3.984375 C 1.546875 -4.128906 1.285156 -4.351562 1.078125 -4.65625 C 0.867188 -4.96875 0.765625 -5.34375 0.765625 -5.78125 C 0.765625 -6.457031 1.023438 -6.992188 1.546875 -7.390625 C 2.078125 -7.796875 2.78125 -8 3.65625 -8 Z M 3.65625 -8 "/></g></g></g><g fill="#bc996f" fill-opacity="1"><g transform="translate(132.287895, 274.122376)"><g><path d="M 66.1875 -53.234375 L 66.1875 -85.34375 L 83 -85.34375 L 83 0 L 66.1875 0 L 66.1875 -38.875 L 27.953125 -38.875 L 27.953125 0 L 11.09375 0 L 11.09375 -85.34375 L 27.953125 -85.34375 L 27.953125 -53.234375 Z M 66.1875 -53.234375 "/></g></g></g></svg>