<svg xmlns="http://www.w3.org/2000/svg" xmlns:xlink="http://www.w3.org/1999/xlink" width="500" zoomAndPan="magnify" viewBox="0 0 375 374.999991" height="500" preserveAspectRatio="xMidYMid meet" version="1.0"><defs><g/><clipPath id="1eb6bce94f"><path d="M 190 120 L 355.121094 120 L 355.121094 268 L 190 268 Z M 190 120 " clip-rule="nonzero"/></clipPath></defs><path fill="#a6a6a6" d="M 257.945312 78.640625 L 243.171875 63.867188 C 198.546875 19.242188 151.632812 37.03125 151.039062 37.28125 C 151.039062 37.28125 167.832031 41.148438 181.636719 52.761719 C 192.792969 62.144531 193.429688 79.121094 183.121094 89.429688 L 185.785156 92.089844 L 97.011719 180.867188 L 119.40625 203.261719 L 208.179688 114.488281 L 210.84375 117.152344 L 221.898438 106.09375 C 223.550781 107.746094 225.054688 109.210938 226.304688 110.417969 C 228.363281 112.40625 231.636719 112.375 233.660156 110.351562 L 257.945312 86.066406 C 259.996094 84.015625 259.996094 80.695312 257.945312 78.640625 Z M 276.667969 97.363281 L 269.386719 90.082031 C 266.65625 87.351562 262.230469 87.351562 259.496094 90.082031 L 238.007812 111.574219 C 235.277344 114.304688 235.277344 118.730469 238.007812 121.460938 L 245.285156 128.742188 C 248.019531 131.472656 252.449219 131.472656 255.179688 128.742188 L 276.667969 107.253906 C 279.398438 104.523438 279.398438 100.09375 276.667969 97.363281 Z M 39.066406 233.675781 C 30.75 241.140625 30.398438 254.0625 38.304688 261.964844 L 38.304688 261.96875 C 46.210938 269.871094 59.128906 269.523438 66.597656 261.203125 L 116.671875 206.792969 L 93.476562 183.597656 L 39.066406 233.675781 " fill-opacity="1" fill-rule="nonzero"/><path fill="#545454" d="M 178.84375 235.183594 L 154.726562 235.183594 L 154.726562 211.066406 L 178.84375 211.066406 L 178.84375 235.183594 " fill-opacity="1" fill-rule="nonzero"/><path fill="#545454" d="M 214.355469 235.183594 L 190.234375 235.183594 L 190.234375 211.066406 L 214.355469 211.066406 L 214.355469 235.183594 " fill-opacity="1" fill-rule="nonzero"/><path fill="#545454" d="M 178.84375 267.679688 L 154.726562 267.679688 L 154.726562 243.558594 L 178.84375 243.558594 L 178.84375 267.679688 " fill-opacity="1" fill-rule="nonzero"/><path fill="#545454" d="M 214.355469 267.679688 L 190.234375 267.679688 L 190.234375 243.558594 L 214.355469 243.558594 L 214.355469 267.679688 " fill-opacity="1" fill-rule="nonzero"/><g clip-path="url(#1eb6bce94f)"><path fill="#bc996f" d="M 296.59375 209.152344 L 296.59375 175.878906 L 303.121094 171.207031 L 272.777344 152.824219 L 272.777344 193.976562 L 269.867188 191.066406 L 269.820312 182.375 L 207.71875 120.277344 L 190.429688 137.566406 L 320.539062 267.679688 L 355.121094 267.679688 L 296.59375 209.152344 " fill-opacity="1" fill-rule="nonzero"/></g><g fill="#545454" fill-opacity="1"><g transform="translate(117.630441, 329.260529)"><g><path d="M 33.4375 -33.109375 L 33.4375 0 L 28.703125 0 L 28.703125 -14.75 L 9.703125 -14.75 L 9.703125 0 L 4.96875 0 L 4.96875 -33.109375 L 9.703125 -33.109375 L 9.703125 -18.875 L 28.703125 -18.875 L 28.703125 -33.109375 Z M 33.4375 -33.109375 "/></g></g></g><g fill="#545454" fill-opacity="1"><g transform="translate(156.022026, 329.260529)"><g><path d="M 17.640625 -11.453125 L 17.640625 0 L 12.953125 0 L 12.953125 -11.546875 L -0.1875 -33.109375 L 4.875 -33.109375 L 15.46875 -15.65625 L 26.109375 -33.109375 L 30.796875 -33.109375 Z M 17.640625 -11.453125 "/></g></g></g><g fill="#545454" fill-opacity="1"><g transform="translate(186.612355, 329.260529)"><g><path d="M 4.96875 -33.109375 L 18.921875 -33.109375 C 22.421875 -33.109375 25.523438 -32.414062 28.234375 -31.03125 C 30.941406 -29.644531 33.046875 -27.695312 34.546875 -25.1875 C 36.046875 -22.675781 36.796875 -19.796875 36.796875 -16.546875 C 36.796875 -13.304688 36.046875 -10.429688 34.546875 -7.921875 C 33.046875 -5.410156 30.941406 -3.460938 28.234375 -2.078125 C 25.523438 -0.691406 22.421875 0 18.921875 0 L 4.96875 0 Z M 18.640625 -4.109375 C 21.316406 -4.109375 23.671875 -4.628906 25.703125 -5.671875 C 27.734375 -6.710938 29.300781 -8.171875 30.40625 -10.046875 C 31.507812 -11.921875 32.0625 -14.085938 32.0625 -16.546875 C 32.0625 -19.015625 31.507812 -21.1875 30.40625 -23.0625 C 29.300781 -24.9375 27.734375 -26.394531 25.703125 -27.4375 C 23.671875 -28.476562 21.316406 -29 18.640625 -29 L 9.703125 -29 L 9.703125 -4.109375 Z M 18.640625 -4.109375 "/></g></g></g><g fill="#545454" fill-opacity="1"><g transform="translate(225.665856, 329.260529)"><g><path d="M 29 -4.109375 L 29 0 L 4.96875 0 L 4.96875 -33.109375 L 28.328125 -33.109375 L 28.328125 -29 L 9.703125 -29 L 9.703125 -18.828125 L 26.296875 -18.828125 L 26.296875 -14.796875 L 9.703125 -14.796875 L 9.703125 -4.109375 Z M 29 -4.109375 "/></g></g></g><g fill="#545454" fill-opacity="1"><g transform="translate(127.213568, 351.570265)"><g><path d="M 4.5625 -7.96875 C 5.125 -7.96875 5.671875 -7.859375 6.203125 -7.640625 C 6.734375 -7.429688 7.191406 -7.132812 7.578125 -6.75 L 6.796875 -5.78125 C 6.503906 -6.082031 6.160156 -6.320312 5.765625 -6.5 C 5.378906 -6.6875 4.984375 -6.78125 4.578125 -6.78125 C 3.785156 -6.78125 3.113281 -6.507812 2.5625 -5.96875 C 2.019531 -5.425781 1.75 -4.769531 1.75 -4 C 1.75 -3.207031 2.019531 -2.539062 2.5625 -2 C 3.113281 -1.457031 3.785156 -1.1875 4.578125 -1.1875 C 5.398438 -1.1875 6.140625 -1.5 6.796875 -2.125 L 7.59375 -1.25 C 7.175781 -0.84375 6.695312 -0.519531 6.15625 -0.28125 C 5.613281 -0.0507812 5.066406 0.0625 4.515625 0.0625 C 3.347656 0.0625 2.367188 -0.320312 1.578125 -1.09375 C 0.785156 -1.875 0.390625 -2.835938 0.390625 -3.984375 C 0.390625 -5.109375 0.789062 -6.050781 1.59375 -6.8125 C 2.394531 -7.582031 3.382812 -7.96875 4.5625 -7.96875 Z M 4.5625 -7.96875 "/></g></g></g><g fill="#545454" fill-opacity="1"><g transform="translate(138.362313, 351.570265)"><g><path d="M 1.59375 -6.8125 C 2.40625 -7.582031 3.40625 -7.96875 4.59375 -7.96875 C 5.78125 -7.96875 6.773438 -7.582031 7.578125 -6.8125 C 8.390625 -6.050781 8.796875 -5.101562 8.796875 -3.96875 C 8.796875 -2.832031 8.390625 -1.875 7.578125 -1.09375 C 6.773438 -0.320312 5.78125 0.0625 4.59375 0.0625 C 3.40625 0.0625 2.40625 -0.320312 1.59375 -1.09375 C 0.789062 -1.875 0.390625 -2.832031 0.390625 -3.96875 C 0.390625 -5.101562 0.789062 -6.050781 1.59375 -6.8125 Z M 4.609375 -6.765625 C 3.816406 -6.765625 3.140625 -6.492188 2.578125 -5.953125 C 2.023438 -5.421875 1.75 -4.757812 1.75 -3.96875 C 1.75 -3.1875 2.03125 -2.519531 2.59375 -1.96875 C 3.15625 -1.414062 3.828125 -1.140625 4.609375 -1.140625 C 5.390625 -1.140625 6.054688 -1.414062 6.609375 -1.96875 C 7.160156 -2.519531 7.4375 -3.1875 7.4375 -3.96875 C 7.4375 -4.757812 7.160156 -5.421875 6.609375 -5.953125 C 6.054688 -6.492188 5.390625 -6.765625 4.609375 -6.765625 Z M 4.609375 -6.765625 "/></g></g></g><g fill="#545454" fill-opacity="1"><g transform="translate(150.792366, 351.570265)"><g><path d="M 7.921875 0 L 6.609375 0 L 2.375 -5.6875 L 2.375 0 L 1.046875 0 L 1.046875 -7.9375 L 2.359375 -7.9375 L 6.609375 -2.234375 L 6.609375 -7.9375 L 7.921875 -7.9375 Z M 7.921875 0 "/></g></g></g><g fill="#545454" fill-opacity="1"><g transform="translate(163.018317, 351.570265)"><g><path d="M 6.46875 -6.734375 L 3.953125 -6.734375 L 3.953125 0 L 2.609375 0 L 2.609375 -6.734375 L 0.109375 -6.734375 L 0.109375 -7.9375 L 6.46875 -7.9375 Z M 6.46875 -6.734375 "/></g></g></g><g fill="#545454" fill-opacity="1"><g transform="translate(172.829069, 351.570265)"><g><path d="M 6.078125 0 L 4.625 -2.40625 C 4.550781 -2.394531 4.429688 -2.390625 4.265625 -2.390625 L 2.375 -2.390625 L 2.375 0 L 1.046875 0 L 1.046875 -7.9375 L 4.265625 -7.9375 C 5.273438 -7.9375 6.0625 -7.695312 6.625 -7.21875 C 7.1875 -6.75 7.46875 -6.085938 7.46875 -5.234375 C 7.46875 -4.597656 7.320312 -4.054688 7.03125 -3.609375 C 6.75 -3.171875 6.34375 -2.851562 5.8125 -2.65625 L 7.59375 0 Z M 2.375 -3.59375 L 4.265625 -3.59375 C 5.546875 -3.59375 6.1875 -4.128906 6.1875 -5.203125 C 6.1875 -6.222656 5.546875 -6.734375 4.265625 -6.734375 L 2.375 -6.734375 Z M 2.375 -3.59375 "/></g></g></g><g fill="#545454" fill-opacity="1"><g transform="translate(184.272631, 351.570265)"><g><path d="M 6.171875 -1.796875 L 2.171875 -1.796875 L 1.40625 0 L 0.015625 0 L 3.515625 -7.9375 L 4.890625 -7.9375 L 8.359375 0 L 6.9375 0 Z M 5.65625 -2.984375 L 4.15625 -6.515625 L 2.671875 -2.984375 Z M 5.65625 -2.984375 "/></g></g></g><g fill="#545454" fill-opacity="1"><g transform="translate(195.886275, 351.570265)"><g><path d="M 4.5625 -7.96875 C 5.125 -7.96875 5.671875 -7.859375 6.203125 -7.640625 C 6.734375 -7.429688 7.191406 -7.132812 7.578125 -6.75 L 6.796875 -5.78125 C 6.503906 -6.082031 6.160156 -6.320312 5.765625 -6.5 C 5.378906 -6.6875 4.984375 -6.78125 4.578125 -6.78125 C 3.785156 -6.78125 3.113281 -6.507812 2.5625 -5.96875 C 2.019531 -5.425781 1.75 -4.769531 1.75 -4 C 1.75 -3.207031 2.019531 -2.539062 2.5625 -2 C 3.113281 -1.457031 3.785156 -1.1875 4.578125 -1.1875 C 5.398438 -1.1875 6.140625 -1.5 6.796875 -2.125 L 7.59375 -1.25 C 7.175781 -0.84375 6.695312 -0.519531 6.15625 -0.28125 C 5.613281 -0.0507812 5.066406 0.0625 4.515625 0.0625 C 3.347656 0.0625 2.367188 -0.320312 1.578125 -1.09375 C 0.785156 -1.875 0.390625 -2.835938 0.390625 -3.984375 C 0.390625 -5.109375 0.789062 -6.050781 1.59375 -6.8125 C 2.394531 -7.582031 3.382812 -7.96875 4.5625 -7.96875 Z M 4.5625 -7.96875 "/></g></g></g><g fill="#545454" fill-opacity="1"><g transform="translate(207.035025, 351.570265)"><g><path d="M 6.46875 -6.734375 L 3.953125 -6.734375 L 3.953125 0 L 2.609375 0 L 2.609375 -6.734375 L 0.109375 -6.734375 L 0.109375 -7.9375 L 6.46875 -7.9375 Z M 6.46875 -6.734375 "/></g></g></g><g fill="#545454" fill-opacity="1"><g transform="translate(216.845773, 351.570265)"><g><path d="M 1.59375 -6.8125 C 2.40625 -7.582031 3.40625 -7.96875 4.59375 -7.96875 C 5.78125 -7.96875 6.773438 -7.582031 7.578125 -6.8125 C 8.390625 -6.050781 8.796875 -5.101562 8.796875 -3.96875 C 8.796875 -2.832031 8.390625 -1.875 7.578125 -1.09375 C 6.773438 -0.320312 5.78125 0.0625 4.59375 0.0625 C 3.40625 0.0625 2.40625 -0.320312 1.59375 -1.09375 C 0.789062 -1.875 0.390625 -2.832031 0.390625 -3.96875 C 0.390625 -5.101562 0.789062 -6.050781 1.59375 -6.8125 Z M 4.609375 -6.765625 C 3.816406 -6.765625 3.140625 -6.492188 2.578125 -5.953125 C 2.023438 -5.421875 1.75 -4.757812 1.75 -3.96875 C 1.75 -3.1875 2.03125 -2.519531 2.59375 -1.96875 C 3.15625 -1.414062 3.828125 -1.140625 4.609375 -1.140625 C 5.390625 -1.140625 6.054688 -1.414062 6.609375 -1.96875 C 7.160156 -2.519531 7.4375 -3.1875 7.4375 -3.96875 C 7.4375 -4.757812 7.160156 -5.421875 6.609375 -5.953125 C 6.054688 -6.492188 5.390625 -6.765625 4.609375 -6.765625 Z M 4.609375 -6.765625 "/></g></g></g><g fill="#545454" fill-opacity="1"><g transform="translate(229.27583, 351.570265)"><g><path d="M 6.078125 0 L 4.625 -2.40625 C 4.550781 -2.394531 4.429688 -2.390625 4.265625 -2.390625 L 2.375 -2.390625 L 2.375 0 L 1.046875 0 L 1.046875 -7.9375 L 4.265625 -7.9375 C 5.273438 -7.9375 6.0625 -7.695312 6.625 -7.21875 C 7.1875 -6.75 7.46875 -6.085938 7.46875 -5.234375 C 7.46875 -4.597656 7.320312 -4.054688 7.03125 -3.609375 C 6.75 -3.171875 6.34375 -2.851562 5.8125 -2.65625 L 7.59375 0 Z M 2.375 -3.59375 L 4.265625 -3.59375 C 5.546875 -3.59375 6.1875 -4.128906 6.1875 -5.203125 C 6.1875 -6.222656 5.546875 -6.734375 4.265625 -6.734375 L 2.375 -6.734375 Z M 2.375 -3.59375 "/></g></g></g><g fill="#545454" fill-opacity="1"><g transform="translate(240.719396, 351.570265)"><g><path d="M 3.65625 -8 C 4.6875 -8 5.613281 -7.726562 6.4375 -7.1875 L 5.875 -6 C 5.0625 -6.488281 4.285156 -6.734375 3.546875 -6.734375 C 3.148438 -6.734375 2.832031 -6.660156 2.59375 -6.515625 C 2.363281 -6.378906 2.25 -6.175781 2.25 -5.90625 C 2.25 -5.644531 2.351562 -5.421875 2.5625 -5.234375 C 2.78125 -5.046875 3.046875 -4.910156 3.359375 -4.828125 C 3.679688 -4.742188 4.023438 -4.632812 4.390625 -4.5 C 4.765625 -4.363281 5.109375 -4.222656 5.421875 -4.078125 C 5.742188 -3.929688 6.007812 -3.703125 6.21875 -3.390625 C 6.425781 -3.078125 6.53125 -2.695312 6.53125 -2.25 C 6.53125 -1.550781 6.25 -0.992188 5.6875 -0.578125 C 5.132812 -0.160156 4.421875 0.046875 3.546875 0.046875 C 2.929688 0.046875 2.34375 -0.0664062 1.78125 -0.296875 C 1.21875 -0.523438 0.722656 -0.832031 0.296875 -1.21875 L 0.875 -2.375 C 1.269531 -2 1.707031 -1.710938 2.1875 -1.515625 C 2.675781 -1.316406 3.132812 -1.21875 3.5625 -1.21875 C 4.03125 -1.21875 4.394531 -1.300781 4.65625 -1.46875 C 4.914062 -1.632812 5.046875 -1.867188 5.046875 -2.171875 C 5.046875 -2.453125 4.9375 -2.679688 4.71875 -2.859375 C 4.507812 -3.046875 4.242188 -3.179688 3.921875 -3.265625 C 3.609375 -3.359375 3.265625 -3.46875 2.890625 -3.59375 C 2.523438 -3.71875 2.179688 -3.847656 1.859375 -3.984375 C 1.546875 -4.128906 1.285156 -4.351562 1.078125 -4.65625 C 0.867188 -4.96875 0.765625 -5.34375 0.765625 -5.78125 C 0.765625 -6.457031 1.023438 -6.992188 1.546875 -7.390625 C 2.078125 -7.796875 2.78125 -8 3.65625 -8 Z M 3.65625 -8 "/></g></g></g><g fill="#bc996f" fill-opacity="1"><g transform="translate(136.748081, 282.832717)"><g><path d="M 66.1875 -53.234375 L 66.1875 -85.34375 L 83 -85.34375 L 83 0 L 66.1875 0 L 66.1875 -38.875 L 27.953125 -38.875 L 27.953125 0 L 11.09375 0 L 11.09375 -85.34375 L 27.953125 -85.34375 L 27.953125 -53.234375 Z M 66.1875 -53.234375 "/></g></g></g></svg>