<svg xmlns="http://www.w3.org/2000/svg" xmlns:xlink="http://www.w3.org/1999/xlink" width="500" zoomAndPan="magnify" viewBox="0 0 375 374.999991" height="500" preserveAspectRatio="xMidYMid meet" version="1.0"><defs><clipPath id="5cae3b2540"><path d="M 10.707031 10.707031 L 363.957031 10.707031 L 363.957031 363.957031 L 10.707031 363.957031 Z M 10.707031 10.707031 " clip-rule="nonzero"/></clipPath></defs><g clip-path="url(#5cae3b2540)"><path fill="#0a66c2" d="M 364.285156 310.523438 C 364.285156 340.195312 340.230469 364.25 310.554688 364.25 L 64.445312 364.25 C 34.773438 364.25 10.71875 340.195312 10.71875 310.523438 L 10.71875 64.410156 C 10.71875 34.738281 34.773438 10.683594 64.445312 10.683594 L 310.558594 10.683594 C 340.230469 10.683594 364.285156 34.738281 364.285156 64.410156 Z M 364.285156 310.523438 " fill-opacity="1" fill-rule="nonzero"/></g><path fill="#ffffff" d="M 150.527344 136.828125 C 150.527344 137.691406 150.484375 138.554688 150.398438 139.417969 C 150.316406 140.277344 150.1875 141.132812 150.019531 141.980469 C 149.851562 142.828125 149.640625 143.667969 149.390625 144.496094 C 149.140625 145.324219 148.847656 146.136719 148.515625 146.933594 C 148.1875 147.734375 147.816406 148.515625 147.410156 149.277344 C 147 150.042969 146.554688 150.78125 146.074219 151.5 C 145.59375 152.21875 145.082031 152.914062 144.53125 153.582031 C 143.984375 154.253906 143.402344 154.890625 142.792969 155.503906 C 142.179688 156.117188 141.539062 156.695312 140.871094 157.246094 C 140.203125 157.792969 139.507812 158.308594 138.789062 158.789062 C 138.070312 159.269531 137.328125 159.714844 136.566406 160.121094 C 135.800781 160.527344 135.023438 160.898438 134.222656 161.230469 C 133.421875 161.558594 132.609375 161.851562 131.78125 162.101562 C 130.953125 162.355469 130.117188 162.5625 129.265625 162.730469 C 128.417969 162.902344 127.566406 163.027344 126.703125 163.113281 C 125.84375 163.199219 124.980469 163.238281 124.113281 163.238281 C 123.25 163.238281 122.386719 163.199219 121.527344 163.113281 C 120.664062 163.027344 119.808594 162.902344 118.960938 162.730469 C 118.113281 162.5625 117.277344 162.355469 116.449219 162.101562 C 115.621094 161.851562 114.804688 161.558594 114.007812 161.230469 C 113.207031 160.898438 112.425781 160.527344 111.664062 160.121094 C 110.902344 159.714844 110.160156 159.269531 109.441406 158.789062 C 108.722656 158.308594 108.027344 157.792969 107.359375 157.246094 C 106.691406 156.695312 106.050781 156.117188 105.4375 155.503906 C 104.828125 154.890625 104.246094 154.253906 103.699219 153.582031 C 103.148438 152.914062 102.632812 152.21875 102.152344 151.5 C 101.671875 150.78125 101.230469 150.042969 100.820312 149.277344 C 100.414062 148.515625 100.042969 147.734375 99.710938 146.933594 C 99.382812 146.136719 99.089844 145.324219 98.839844 144.496094 C 98.589844 143.667969 98.378906 142.828125 98.210938 141.980469 C 98.042969 141.132812 97.914062 140.277344 97.828125 139.417969 C 97.746094 138.554688 97.703125 137.691406 97.703125 136.828125 C 97.703125 135.960938 97.746094 135.097656 97.828125 134.238281 C 97.914062 133.378906 98.042969 132.523438 98.210938 131.675781 C 98.378906 130.828125 98.589844 129.988281 98.839844 129.160156 C 99.089844 128.332031 99.382812 127.519531 99.710938 126.71875 C 100.042969 125.921875 100.414062 125.140625 100.820312 124.375 C 101.230469 123.613281 101.671875 122.871094 102.152344 122.152344 C 102.632812 121.433594 103.148438 120.742188 103.699219 120.070312 C 104.246094 119.402344 104.828125 118.761719 105.4375 118.152344 C 106.050781 117.539062 106.691406 116.960938 107.359375 116.410156 C 108.027344 115.863281 108.722656 115.347656 109.441406 114.867188 C 110.160156 114.386719 110.902344 113.941406 111.664062 113.535156 C 112.425781 113.125 113.207031 112.757812 114.007812 112.425781 C 114.804688 112.09375 115.621094 111.804688 116.449219 111.550781 C 117.277344 111.300781 118.113281 111.089844 118.960938 110.921875 C 119.808594 110.753906 120.664062 110.628906 121.527344 110.542969 C 122.386719 110.457031 123.25 110.414062 124.113281 110.414062 C 124.980469 110.414062 125.84375 110.457031 126.703125 110.542969 C 127.566406 110.628906 128.417969 110.753906 129.265625 110.921875 C 130.117188 111.089844 130.953125 111.300781 131.78125 111.550781 C 132.609375 111.804688 133.421875 112.09375 134.222656 112.425781 C 135.023438 112.757812 135.800781 113.125 136.566406 113.535156 C 137.328125 113.941406 138.070312 114.386719 138.789062 114.867188 C 139.507812 115.347656 140.203125 115.863281 140.871094 116.410156 C 141.539062 116.960938 142.179688 117.539062 142.792969 118.152344 C 143.402344 118.761719 143.984375 119.402344 144.53125 120.070312 C 145.082031 120.742188 145.59375 121.433594 146.074219 122.152344 C 146.554688 122.871094 147 123.613281 147.410156 124.375 C 147.816406 125.140625 148.1875 125.921875 148.515625 126.71875 C 148.847656 127.519531 149.140625 128.332031 149.390625 129.160156 C 149.640625 129.988281 149.851562 130.828125 150.019531 131.675781 C 150.1875 132.523438 150.316406 133.378906 150.398438 134.238281 C 150.484375 135.097656 150.527344 135.960938 150.527344 136.828125 Z M 150.527344 136.828125 " fill-opacity="1" fill-rule="nonzero"/><path fill="#ffffff" d="M 101.34375 182.710938 L 146.722656 182.710938 L 146.722656 328.683594 L 101.34375 328.683594 Z M 101.34375 182.710938 " fill-opacity="1" fill-rule="nonzero"/><path fill="#ffffff" d="M 175.257812 182.710938 L 218.449219 182.710938 L 218.449219 328.683594 L 175.257812 328.683594 Z M 175.257812 182.710938 " fill-opacity="1" fill-rule="nonzero"/><path fill="#ffffff" d="M 177.125 260.433594 L 220.3125 260.433594 L 220.3125 328.683594 L 177.125 328.683594 Z M 177.125 260.433594 " fill-opacity="1" fill-rule="nonzero"/><path fill="#ffffff" d="M 220.3125 260.433594 C 220.3125 260.433594 219.636719 241.5 224.632812 231.65625 C 224.632812 231.65625 229.625 219.53125 245.320312 219.457031 C 245.320312 219.457031 263.726562 216.246094 269.007812 234.511719 C 269.007812 234.511719 271.003906 244.640625 271.003906 248.921875 C 271.003906 253.203125 271.148438 328.6875 271.148438 328.6875 L 316.378906 328.6875 L 316.378906 245.070312 C 316.378906 245.070312 319.664062 197.839844 291.3125 184.898438 C 291.3125 184.898438 244.699219 163.972656 219.402344 202.40625 C 219.402344 202.40625 213.882812 206.207031 213.121094 195.554688 C 212.359375 184.898438 205.890625 211.917969 205.699219 212.488281 C 205.511719 213.058594 213.121094 266.328125 213.121094 266.328125 Z M 220.3125 260.433594 " fill-opacity="1" fill-rule="nonzero"/></svg>