<?xml version="1.0" encoding="UTF-8"?>
<svg xmlns="http://www.w3.org/2000/svg" xmlns:xlink="http://www.w3.org/1999/xlink" version="1.1" viewBox="0 0 500 500">
  <defs>
    <style>
      .cls-1 {
        fill: none;
      }

      .cls-2 {
        clip-path: url(#clippath-1);
      }

      .cls-3 {
        clip-path: url(#clippath-2);
      }

      .cls-4 {
        fill: #fcfcfc;
      }

      .cls-5 {
        clip-path: url(#clippath);
      }

      .cls-6 {
        fill: #23d366;
      }
    </style>
    <clipPath id="clippath">
      <rect class="cls-1" x="1.3" y="6" width="497.3" height="488"/>
    </clipPath>
    <clipPath id="clippath-1">
      <path class="cls-1" d="M250,6C112.7,6,1.3,115.2,1.3,250s111.3,244,248.7,244,248.7-109.2,248.7-244S387.3,6,250,6Z"/>
    </clipPath>
    <clipPath id="clippath-2">
      <rect class="cls-1" x="117.1" y="105.1" width="290.8" height="285.1"/>
    </clipPath>
  </defs>
  <!-- Generator: Adobe Illustrator 28.8.0, SVG Export Plug-In . SVG Version: 1.2.0 Build 7)  -->
  <g>
    <g id="Layer_1">
      <g class="cls-5">
        <g class="cls-2">
          <path class="cls-6" d="M1.3,6h497.3v488H1.3V6Z"/>
        </g>
      </g>
      <g class="cls-3">
        <path class="cls-4" d="M262.1,105.3c-80.7.3-145.2,64.6-144.1,143.8,0,8,.9,15.9,2.3,23.7,1.5,7.8,3.6,15.5,6.4,23,2.8,7.5,6.2,14.7,10.2,21.6,4,6.9,8.6,13.5,13.8,19.6.8,1,1.5,2,1.9,3.2.5,1.2.8,2.4.9,3.6.1,1.3,0,2.5-.2,3.7-.3,1.2-.7,2.4-1.3,3.5l-12.5,21.9c-3.5,6.1,2.2,13.2,9,11.5l42.2-10.5c3-.8,6-.5,8.8.9,9.3,4.4,19,7.9,29.1,10.3s20.3,3.7,30.7,3.9c81.1,1.8,147.7-61.8,147.9-141.4.2-78.7-64.9-142.6-145.1-142.4ZM262.6,371.7c-2.1,0-4.1,0-6.2-.1-2.1-.1-4.1-.3-6.2-.4-2.1-.2-4.1-.4-6.2-.7-2.1-.3-4.1-.6-6.1-1s-4.1-.8-6.1-1.3-4-1-6-1.6c-2-.6-4-1.2-5.9-1.9-2-.7-3.9-1.4-5.8-2.2-1.9-.8-3.8-1.6-5.7-2.5-1.9-.9-3.7-1.8-5.6-2.7s-3.6-2-5.4-3c-1.8-1-3.5-2.1-5.3-3.3-1.7-1.1-3.4-2.3-5.1-3.5s-3.3-2.5-4.9-3.8-3.2-2.6-4.7-4c-1.5-1.4-3-2.8-4.5-4.2-1.5-1.4-2.9-2.9-4.3-4.4-1.4-1.5-2.8-3.1-4.1-4.6s-2.6-3.2-3.8-4.8c-1.2-1.6-2.4-3.3-3.6-5-1.2-1.7-2.3-3.4-3.3-5.2-1.1-1.7-2.1-3.5-3.1-5.3s-1.9-3.6-2.8-5.5c-.9-1.8-1.7-3.7-2.5-5.6-.8-1.9-1.5-3.8-2.2-5.7-.7-1.9-1.3-3.9-1.9-5.8-.6-1.9-1.2-3.9-1.7-5.9s-1-4-1.4-6-.8-4-1.1-6c-.3-2-.6-4-.8-6.1s-.4-4.1-.5-6.1-.2-4.1-.2-6.1c0-68.7,56.8-124.4,126.8-124.4s126.4,55.3,126.8,123.6c.4,68.6-56.9,125.2-126.8,125.2Z"/>
      </g>
      <path class="cls-6" d="M389.4,247.2c0,2,0,4.1-.2,6.1,0,2-.3,4.1-.5,6.1-.2,2-.5,4-.8,6.1s-.7,4-1.1,6-.9,4-1.4,6c-.5,2-1.1,3.9-1.7,5.9-.6,1.9-1.3,3.9-2,5.8s-1.4,3.8-2.2,5.7c-.8,1.9-1.6,3.7-2.5,5.6-.9,1.8-1.8,3.7-2.8,5.5-1,1.8-2,3.6-3.1,5.3-1.1,1.7-2.2,3.5-3.3,5.2-1.2,1.7-2.4,3.4-3.6,5-1.2,1.6-2.5,3.2-3.8,4.8-1.3,1.6-2.7,3.1-4.1,4.6-1.4,1.5-2.8,3-4.3,4.4s-3,2.8-4.5,4.2c-1.5,1.4-3.1,2.7-4.7,4-1.6,1.3-3.2,2.5-4.9,3.8s-3.4,2.4-5.1,3.5c-1.7,1.1-3.5,2.2-5.3,3.3-1.8,1-3.6,2-5.4,3-1.8,1-3.7,1.9-5.6,2.7-1.9.9-3.8,1.7-5.7,2.5-1.9.8-3.9,1.5-5.8,2.2s-3.9,1.3-5.9,1.9-4,1.1-6,1.6-4,.9-6.1,1.3c-2,.4-4.1.7-6.1,1s-4.1.5-6.2.7c-2.1.2-4.1.3-6.2.4-2.1,0-4.1.1-6.2.1s-4.1,0-6.2-.1c-2.1-.1-4.1-.3-6.2-.4-2.1-.2-4.1-.4-6.2-.7-2.1-.3-4.1-.6-6.1-1s-4.1-.8-6.1-1.3-4-1-6-1.6c-2-.6-4-1.2-5.9-1.9s-3.9-1.4-5.8-2.2c-1.9-.8-3.8-1.6-5.7-2.5-1.9-.9-3.7-1.8-5.6-2.7-1.8-1-3.6-2-5.4-3-1.8-1-3.5-2.1-5.3-3.3-1.7-1.1-3.4-2.3-5.1-3.5s-3.3-2.5-4.9-3.8-3.2-2.6-4.7-4c-1.5-1.4-3-2.8-4.5-4.2-1.5-1.4-2.9-2.9-4.3-4.4-1.4-1.5-2.8-3.1-4.1-4.6-1.3-1.6-2.6-3.2-3.8-4.8-1.2-1.6-2.4-3.3-3.6-5-1.2-1.7-2.3-3.4-3.3-5.2-1.1-1.7-2.1-3.5-3.1-5.3-1-1.8-1.9-3.6-2.8-5.5-.9-1.8-1.7-3.7-2.5-5.6-.8-1.9-1.5-3.8-2.2-5.7-.7-1.9-1.3-3.8-1.9-5.8-.6-1.9-1.2-3.9-1.7-5.9-.5-2-1-4-1.4-6s-.8-4-1.1-6c-.3-2-.6-4-.8-6.1-.2-2-.4-4.1-.5-6.1s-.2-4.1-.2-6.1,0-4.1.2-6.1.3-4.1.5-6.1c.2-2,.5-4,.8-6.1.3-2,.7-4,1.1-6s.9-4,1.4-6c.5-2,1.1-3.9,1.7-5.9.6-1.9,1.2-3.9,1.9-5.8.7-1.9,1.4-3.8,2.2-5.7.8-1.9,1.6-3.7,2.5-5.6.9-1.8,1.8-3.7,2.8-5.5,1-1.8,2-3.6,3.1-5.3,1.1-1.7,2.2-3.5,3.3-5.2,1.1-1.7,2.3-3.4,3.6-5,1.2-1.6,2.5-3.2,3.8-4.8,1.3-1.6,2.7-3.1,4.1-4.6,1.4-1.5,2.8-3,4.3-4.4,1.5-1.4,3-2.8,4.5-4.2,1.5-1.4,3.1-2.7,4.7-4,1.6-1.3,3.2-2.5,4.9-3.8s3.4-2.4,5.1-3.5c1.7-1.1,3.5-2.2,5.3-3.3s3.6-2,5.4-3c1.8-1,3.7-1.9,5.6-2.7,1.9-.9,3.8-1.7,5.7-2.5,1.9-.8,3.8-1.5,5.8-2.2s3.9-1.3,5.9-1.9c2-.6,4-1.1,6-1.6s4-.9,6.1-1.3,4.1-.7,6.1-1c2-.3,4.1-.5,6.2-.7,2.1-.2,4.1-.3,6.2-.4,2.1,0,4.1-.1,6.2-.1s4.2,0,6.2.1c2.1.1,4.1.3,6.2.4,2.1.2,4.1.4,6.2.7s4.1.6,6.1,1c2,.4,4.1.8,6.1,1.3s4,1,6,1.6,4,1.2,5.9,1.9,3.9,1.4,5.8,2.2c1.9.8,3.8,1.6,5.7,2.5,1.9.9,3.7,1.8,5.6,2.7,1.8,1,3.6,2,5.4,3s3.5,2.1,5.3,3.3c1.7,1.1,3.4,2.3,5.1,3.5s3.3,2.5,4.9,3.8c1.6,1.3,3.2,2.6,4.7,4,1.5,1.4,3,2.8,4.5,4.2s2.9,2.9,4.3,4.4c1.4,1.5,2.7,3.1,4.1,4.6,1.3,1.6,2.6,3.2,3.8,4.8,1.2,1.6,2.4,3.3,3.6,5,1.1,1.7,2.3,3.4,3.3,5.2,1.1,1.7,2.1,3.5,3.1,5.3,1,1.8,1.9,3.6,2.8,5.5.9,1.8,1.7,3.7,2.5,5.6.8,1.9,1.5,3.8,2.2,5.7s1.3,3.8,2,5.8c.6,1.9,1.2,3.9,1.7,5.9.5,2,1,4,1.4,6s.8,4,1.1,6,.6,4,.8,6.1c.2,2,.4,4.1.5,6.1.1,2,.2,4.1.2,6.1Z"/>
      <path class="cls-4" d="M240,186.8h0c0,.1,7.6,14.8,7.6,14.8.4.8.7,1.6,1,2.5.3.8.5,1.7.6,2.6.1.9.2,1.8.2,2.6s0,1.8-.3,2.6-.4,1.7-.7,2.6-.7,1.6-1.1,2.4c-.4.8-.9,1.5-1.5,2.2-.6.7-1.2,1.4-1.8,2-.7.6-1.3,1.3-1.8,1.9-.6.7-1,1.4-1.5,2.2-.4.8-.8,1.6-1.1,2.4-.3.8-.5,1.7-.7,2.5s-.3,1.7-.3,2.6,0,1.8.2,2.6.3,1.7.6,2.6.6,1.7,1,2.4c4.5,8.9,12.4,21.3,24.4,30.2,1.3,1,2.8,1.8,4.4,2.4,1.6.6,3.2.9,4.9,1,1.7,0,3.3,0,5-.5,1.6-.4,3.2-1,4.6-1.9l4.9-2.9c2.2-1.3,4.6-2.1,7.2-2.3,2.6-.2,5.1.1,7.5,1l19.4,7.2c1,.4,2,.9,2.9,1.4.9.6,1.8,1.2,2.6,2,.8.7,1.5,1.6,2.2,2.4.6.9,1.2,1.8,1.6,2.8.5,1,.8,2,1,3.1.2,1.1.4,2.1.4,3.2s0,2.2-.2,3.2c-.2,1.1-.5,2.1-.9,3.1-.2.6-.5,1.1-.8,1.7l-5.4,10.2c-.4.8-.9,1.6-1.5,2.4-.6.7-1.2,1.4-1.9,2.1-.7.6-1.4,1.2-2.2,1.7-.8.5-1.6,1-2.5,1.3s-1.8.7-2.7.9-1.8.4-2.8.5-1.9,0-2.8,0c-.9,0-1.9-.2-2.8-.5-30.4-7.7-102.9-34.5-108.7-115.7-.1-1.6,0-3.2.4-4.8s.9-3.1,1.7-4.5c.8-1.4,1.8-2.7,3-3.8s2.5-2,4-2.8l9.9-5c1-.5,2-.9,3.1-1.2,1.1-.3,2.1-.5,3.2-.6,1.1,0,2.2,0,3.3,0s2.2.4,3.2.7c1,.3,2.1.8,3,1.3,1,.5,1.9,1.1,2.7,1.8.8.7,1.6,1.5,2.3,2.3.7.8,1.3,1.8,1.8,2.7Z"/>
    </g>
  </g>
</svg>