<svg xmlns="http://www.w3.org/2000/svg" xmlns:xlink="http://www.w3.org/1999/xlink" width="500" zoomAndPan="magnify" viewBox="0 0 375 374.999991" height="500" preserveAspectRatio="xMidYMid meet" version="1.0"><defs><clipPath id="f335581944"><path d="M 53.742188 34.632812 L 346.082031 34.632812 L 346.082031 326.972656 L 53.742188 326.972656 Z M 53.742188 34.632812 " clip-rule="nonzero"/></clipPath><clipPath id="0b9cc2cd88"><path d="M 199.910156 34.632812 C 119.183594 34.632812 53.742188 100.074219 53.742188 180.804688 C 53.742188 261.53125 119.183594 326.972656 199.910156 326.972656 C 280.640625 326.972656 346.082031 261.53125 346.082031 180.804688 C 346.082031 100.074219 280.640625 34.632812 199.910156 34.632812 Z M 199.910156 34.632812 " clip-rule="nonzero"/></clipPath><clipPath id="a7ea548734"><path d="M 121 95.1875 L 291.929688 95.1875 L 291.929688 266 L 121 266 Z M 121 95.1875 " clip-rule="nonzero"/></clipPath></defs><g clip-path="url(#f335581944)"><g clip-path="url(#0b9cc2cd88)"><path fill="#23d366" d="M 53.742188 34.632812 L 346.082031 34.632812 L 346.082031 326.972656 L 53.742188 326.972656 Z M 53.742188 34.632812 " fill-opacity="1" fill-rule="nonzero"/></g></g><g clip-path="url(#a7ea548734)"><path fill="#fcfcfc" d="M 206.269531 95.34375 C 158.847656 95.503906 120.945312 134.0625 121.566406 181.484375 C 121.621094 186.257812 122.078125 190.992188 122.933594 195.6875 C 123.792969 200.382812 125.039062 204.972656 126.671875 209.460938 C 128.304688 213.945312 130.304688 218.261719 132.667969 222.40625 C 135.035156 226.554688 137.730469 230.472656 140.757812 234.164062 C 141.234375 234.75 141.617188 235.390625 141.898438 236.089844 C 142.183594 236.789062 142.359375 237.515625 142.425781 238.269531 C 142.492188 239.019531 142.445312 239.765625 142.285156 240.503906 C 142.128906 241.242188 141.863281 241.941406 141.496094 242.601562 L 134.171875 255.722656 C 132.140625 259.359375 135.449219 263.660156 139.488281 262.632812 L 164.289062 256.320312 C 166.074219 255.867188 167.796875 256.042969 169.453125 256.847656 C 174.9375 259.511719 180.644531 261.5625 186.570312 262.992188 C 192.496094 264.421875 198.507812 265.203125 204.605469 265.332031 C 252.285156 266.410156 291.417969 228.3125 291.570312 180.621094 C 291.714844 133.453125 253.441406 95.183594 206.269531 95.34375 Z M 206.5625 254.882812 C 205.34375 254.882812 204.125 254.851562 202.90625 254.792969 C 201.6875 254.730469 200.472656 254.640625 199.257812 254.523438 C 198.042969 254.402344 196.832031 254.253906 195.628906 254.074219 C 194.421875 253.894531 193.21875 253.6875 192.023438 253.449219 C 190.828125 253.210938 189.636719 252.945312 188.453125 252.648438 C 187.269531 252.351562 186.09375 252.027344 184.929688 251.671875 C 183.761719 251.316406 182.601562 250.9375 181.453125 250.523438 C 180.304688 250.113281 179.167969 249.675781 178.042969 249.207031 C 176.914062 248.742188 175.800781 248.246094 174.695312 247.726562 C 173.59375 247.203125 172.503906 246.65625 171.429688 246.082031 C 170.355469 245.507812 169.292969 244.90625 168.246094 244.277344 C 167.199219 243.652344 166.171875 243 165.15625 242.320312 C 164.140625 241.644531 163.144531 240.941406 162.164062 240.214844 C 161.183594 239.488281 160.222656 238.738281 159.28125 237.964844 C 158.339844 237.191406 157.414062 236.394531 156.511719 235.574219 C 155.605469 234.753906 154.722656 233.914062 153.863281 233.050781 C 153 232.191406 152.15625 231.304688 151.339844 230.402344 C 150.519531 229.5 149.722656 228.574219 148.949219 227.632812 C 148.175781 226.691406 147.425781 225.726562 146.699219 224.75 C 145.972656 223.769531 145.269531 222.773438 144.59375 221.757812 C 143.914062 220.742188 143.261719 219.714844 142.636719 218.667969 C 142.007812 217.621094 141.40625 216.558594 140.832031 215.484375 C 140.257812 214.410156 139.710938 213.320312 139.1875 212.214844 C 138.664062 211.113281 138.171875 210 137.703125 208.871094 C 137.238281 207.746094 136.800781 206.609375 136.386719 205.460938 C 135.976562 204.308594 135.59375 203.152344 135.242188 201.984375 C 134.886719 200.816406 134.5625 199.644531 134.265625 198.460938 C 133.96875 197.277344 133.703125 196.085938 133.464844 194.890625 C 133.226562 193.695312 133.015625 192.492188 132.839844 191.285156 C 132.660156 190.078125 132.511719 188.871094 132.390625 187.65625 C 132.269531 186.441406 132.179688 185.226562 132.121094 184.007812 C 132.0625 182.789062 132.03125 181.570312 132.03125 180.351562 C 132.03125 139.1875 165.402344 105.816406 206.5625 105.816406 C 247.566406 105.816406 280.835938 138.929688 281.09375 179.871094 C 281.351562 220.949219 247.644531 254.882812 206.5625 254.882812 Z M 206.5625 254.882812 " fill-opacity="1" fill-rule="nonzero"/></g><path fill="#23d366" d="M 281.09375 180.351562 C 281.09375 181.570312 281.066406 182.789062 281.003906 184.007812 C 280.945312 185.226562 280.855469 186.441406 280.734375 187.65625 C 280.617188 188.867188 280.46875 190.078125 280.289062 191.285156 C 280.109375 192.492188 279.902344 193.695312 279.664062 194.890625 C 279.425781 196.085938 279.15625 197.277344 278.859375 198.460938 C 278.566406 199.644531 278.238281 200.816406 277.886719 201.984375 C 277.53125 203.152344 277.148438 204.308594 276.738281 205.457031 C 276.328125 206.605469 275.886719 207.746094 275.421875 208.871094 C 274.953125 210 274.460938 211.113281 273.9375 212.214844 C 273.417969 213.320312 272.867188 214.40625 272.292969 215.484375 C 271.71875 216.558594 271.117188 217.621094 270.492188 218.667969 C 269.863281 219.710938 269.210938 220.742188 268.535156 221.757812 C 267.855469 222.769531 267.152344 223.769531 266.425781 224.75 C 265.699219 225.726562 264.949219 226.6875 264.175781 227.632812 C 263.402344 228.574219 262.605469 229.5 261.789062 230.402344 C 260.96875 231.304688 260.128906 232.1875 259.265625 233.050781 C 258.402344 233.914062 257.519531 234.753906 256.617188 235.574219 C 255.710938 236.394531 254.789062 237.191406 253.84375 237.964844 C 252.902344 238.738281 251.941406 239.488281 250.960938 240.214844 C 249.980469 240.941406 248.984375 241.644531 247.96875 242.320312 C 246.957031 242.996094 245.925781 243.652344 244.878906 244.277344 C 243.832031 244.90625 242.773438 245.503906 241.695312 246.082031 C 240.621094 246.65625 239.53125 247.203125 238.429688 247.726562 C 237.328125 248.246094 236.210938 248.742188 235.085938 249.207031 C 233.957031 249.675781 232.820312 250.113281 231.671875 250.523438 C 230.523438 250.933594 229.367188 251.316406 228.199219 251.671875 C 227.03125 252.027344 225.855469 252.351562 224.671875 252.648438 C 223.488281 252.945312 222.300781 253.210938 221.105469 253.449219 C 219.90625 253.6875 218.707031 253.894531 217.5 254.074219 C 216.292969 254.253906 215.082031 254.402344 213.867188 254.523438 C 212.65625 254.640625 211.4375 254.730469 210.21875 254.792969 C 209.003906 254.851562 207.78125 254.882812 206.5625 254.882812 C 205.34375 254.882812 204.125 254.851562 202.90625 254.792969 C 201.6875 254.730469 200.472656 254.640625 199.257812 254.523438 C 198.042969 254.402344 196.832031 254.253906 195.628906 254.074219 C 194.421875 253.894531 193.21875 253.6875 192.023438 253.449219 C 190.828125 253.210938 189.636719 252.945312 188.453125 252.648438 C 187.269531 252.351562 186.09375 252.027344 184.929688 251.671875 C 183.761719 251.316406 182.601562 250.933594 181.453125 250.523438 C 180.304688 250.113281 179.167969 249.675781 178.042969 249.207031 C 176.914062 248.742188 175.800781 248.246094 174.695312 247.726562 C 173.59375 247.203125 172.503906 246.65625 171.429688 246.082031 C 170.351562 245.503906 169.292969 244.90625 168.246094 244.277344 C 167.199219 243.652344 166.167969 242.996094 165.15625 242.320312 C 164.140625 241.644531 163.144531 240.941406 162.164062 240.214844 C 161.183594 239.488281 160.222656 238.738281 159.28125 237.964844 C 158.339844 237.191406 157.414062 236.394531 156.511719 235.574219 C 155.605469 234.753906 154.722656 233.914062 153.863281 233.050781 C 153 232.1875 152.15625 231.304688 151.339844 230.402344 C 150.519531 229.5 149.722656 228.574219 148.949219 227.632812 C 148.175781 226.6875 147.425781 225.726562 146.699219 224.75 C 145.972656 223.769531 145.269531 222.769531 144.59375 221.757812 C 143.914062 220.742188 143.261719 219.710938 142.636719 218.667969 C 142.007812 217.621094 141.40625 216.558594 140.832031 215.484375 C 140.257812 214.40625 139.707031 213.320312 139.1875 212.214844 C 138.664062 211.113281 138.171875 210 137.703125 208.871094 C 137.238281 207.746094 136.800781 206.605469 136.386719 205.457031 C 135.976562 204.308594 135.59375 203.152344 135.242188 201.984375 C 134.886719 200.816406 134.5625 199.640625 134.265625 198.460938 C 133.96875 197.277344 133.703125 196.085938 133.464844 194.890625 C 133.226562 193.695312 133.015625 192.492188 132.839844 191.285156 C 132.660156 190.078125 132.511719 188.867188 132.390625 187.65625 C 132.269531 186.441406 132.179688 185.226562 132.121094 184.007812 C 132.0625 182.789062 132.03125 181.570312 132.03125 180.351562 C 132.03125 179.128906 132.0625 177.910156 132.121094 176.691406 C 132.179688 175.472656 132.269531 174.257812 132.390625 173.042969 C 132.511719 171.832031 132.660156 170.621094 132.839844 169.414062 C 133.015625 168.207031 133.226562 167.003906 133.464844 165.808594 C 133.703125 164.613281 133.96875 163.421875 134.265625 162.238281 C 134.5625 161.058594 134.886719 159.882812 135.242188 158.714844 C 135.59375 157.546875 135.976562 156.390625 136.386719 155.242188 C 136.800781 154.09375 137.238281 152.953125 137.703125 151.828125 C 138.171875 150.699219 138.664062 149.585938 139.1875 148.484375 C 139.707031 147.378906 140.257812 146.292969 140.832031 145.214844 C 141.40625 144.140625 142.007812 143.078125 142.636719 142.03125 C 143.261719 140.988281 143.914062 139.957031 144.59375 138.941406 C 145.269531 137.929688 145.972656 136.929688 146.699219 135.953125 C 147.425781 134.972656 148.175781 134.011719 148.949219 133.066406 C 149.722656 132.125 150.519531 131.203125 151.339844 130.296875 C 152.15625 129.394531 153 128.511719 153.863281 127.648438 C 154.722656 126.785156 155.605469 125.945312 156.511719 125.125 C 157.414062 124.304688 158.339844 123.511719 159.28125 122.734375 C 160.222656 121.960938 161.183594 121.210938 162.164062 120.484375 C 163.144531 119.757812 164.140625 119.058594 165.15625 118.378906 C 166.167969 117.703125 167.199219 117.050781 168.246094 116.421875 C 169.292969 115.792969 170.351562 115.195312 171.429688 114.617188 C 172.503906 114.042969 173.59375 113.496094 174.695312 112.972656 C 175.800781 112.453125 176.914062 111.957031 178.042969 111.492188 C 179.167969 111.023438 180.304688 110.585938 181.453125 110.175781 C 182.601562 109.765625 183.761719 109.382812 184.929688 109.027344 C 186.09375 108.671875 187.269531 108.347656 188.453125 108.050781 C 189.636719 107.753906 190.828125 107.488281 192.023438 107.25 C 193.21875 107.011719 194.421875 106.804688 195.628906 106.625 C 196.832031 106.445312 198.042969 106.296875 199.257812 106.175781 C 200.472656 106.058594 201.6875 105.96875 202.90625 105.90625 C 204.125 105.847656 205.34375 105.816406 206.5625 105.816406 C 207.78125 105.816406 209.003906 105.847656 210.21875 105.90625 C 211.4375 105.96875 212.65625 106.058594 213.867188 106.175781 C 215.082031 106.296875 216.292969 106.445312 217.5 106.625 C 218.707031 106.804688 219.90625 107.011719 221.105469 107.25 C 222.300781 107.488281 223.488281 107.753906 224.671875 108.050781 C 225.855469 108.347656 227.03125 108.671875 228.199219 109.027344 C 229.367188 109.382812 230.523438 109.765625 231.671875 110.175781 C 232.820312 110.585938 233.957031 111.023438 235.085938 111.492188 C 236.210938 111.957031 237.328125 112.453125 238.429688 112.972656 C 239.53125 113.496094 240.621094 114.042969 241.695312 114.617188 C 242.773438 115.195312 243.832031 115.792969 244.878906 116.421875 C 245.925781 117.050781 246.957031 117.703125 247.96875 118.378906 C 248.984375 119.058594 249.980469 119.757812 250.960938 120.484375 C 251.941406 121.210938 252.902344 121.960938 253.84375 122.734375 C 254.789062 123.511719 255.710938 124.304688 256.617188 125.125 C 257.519531 125.945312 258.402344 126.785156 259.265625 127.648438 C 260.128906 128.511719 260.96875 129.394531 261.789062 130.296875 C 262.605469 131.203125 263.402344 132.125 264.175781 133.066406 C 264.949219 134.011719 265.699219 134.972656 266.425781 135.953125 C 267.152344 136.929688 267.855469 137.929688 268.535156 138.941406 C 269.210938 139.957031 269.863281 140.988281 270.492188 142.03125 C 271.117188 143.078125 271.71875 144.140625 272.292969 145.214844 C 272.867188 146.292969 273.417969 147.378906 273.9375 148.484375 C 274.460938 149.585938 274.953125 150.699219 275.421875 151.828125 C 275.886719 152.953125 276.328125 154.09375 276.738281 155.242188 C 277.148438 156.390625 277.53125 157.546875 277.886719 158.714844 C 278.238281 159.882812 278.566406 161.058594 278.859375 162.238281 C 279.15625 163.421875 279.425781 164.613281 279.664062 165.808594 C 279.902344 167.003906 280.109375 168.207031 280.289062 169.414062 C 280.46875 170.621094 280.617188 171.832031 280.734375 173.042969 C 280.855469 174.257812 280.945312 175.472656 281.003906 176.691406 C 281.066406 177.910156 281.09375 179.128906 281.09375 180.351562 Z M 281.09375 180.351562 " fill-opacity="1" fill-rule="nonzero"/><path fill="#fcfcfc" d="M 193.242188 144.113281 L 193.277344 144.183594 L 197.722656 153 C 197.960938 153.472656 198.160156 153.964844 198.320312 154.46875 C 198.480469 154.976562 198.597656 155.492188 198.675781 156.019531 C 198.753906 156.542969 198.785156 157.070312 198.777344 157.601562 C 198.769531 158.132812 198.71875 158.660156 198.625 159.183594 C 198.53125 159.707031 198.394531 160.21875 198.21875 160.71875 C 198.042969 161.21875 197.828125 161.703125 197.574219 162.167969 C 197.320312 162.636719 197.03125 163.078125 196.703125 163.496094 C 196.378906 163.917969 196.023438 164.308594 195.632812 164.667969 C 195.246094 165.027344 194.890625 165.417969 194.566406 165.832031 C 194.242188 166.25 193.953125 166.6875 193.699219 167.152344 C 193.445312 167.613281 193.230469 168.09375 193.050781 168.589844 C 192.875 169.089844 192.738281 169.597656 192.644531 170.117188 C 192.550781 170.636719 192.496094 171.160156 192.484375 171.6875 C 192.472656 172.214844 192.503906 172.738281 192.578125 173.261719 C 192.652344 173.785156 192.765625 174.300781 192.921875 174.804688 C 193.078125 175.308594 193.273438 175.796875 193.507812 176.269531 C 196.175781 181.628906 200.800781 189.015625 207.855469 194.34375 C 208.648438 194.945312 209.507812 195.414062 210.441406 195.757812 C 211.371094 196.097656 212.335938 196.292969 213.328125 196.34375 C 214.316406 196.398438 215.296875 196.300781 216.257812 196.058594 C 217.222656 195.816406 218.125 195.441406 218.976562 194.925781 L 221.839844 193.183594 C 223.140625 192.390625 224.546875 191.925781 226.066406 191.785156 C 227.582031 191.644531 229.050781 191.847656 230.476562 192.386719 L 241.855469 196.714844 C 242.460938 196.945312 243.039062 197.230469 243.585938 197.574219 C 244.136719 197.917969 244.648438 198.3125 245.117188 198.757812 C 245.589844 199.203125 246.011719 199.691406 246.390625 200.21875 C 246.765625 200.746094 247.085938 201.304688 247.351562 201.898438 C 247.617188 202.488281 247.820312 203.101562 247.96875 203.730469 C 248.113281 204.363281 248.195312 205.003906 248.214844 205.652344 C 248.234375 206.300781 248.1875 206.941406 248.082031 207.582031 C 247.972656 208.222656 247.804688 208.84375 247.574219 209.449219 C 247.441406 209.796875 247.289062 210.136719 247.117188 210.46875 L 243.964844 216.578125 C 243.710938 217.074219 243.414062 217.542969 243.082031 217.988281 C 242.746094 218.429688 242.375 218.84375 241.972656 219.226562 C 241.566406 219.609375 241.132812 219.953125 240.671875 220.261719 C 240.207031 220.570312 239.722656 220.839844 239.214844 221.066406 C 238.707031 221.292969 238.183594 221.476562 237.644531 221.613281 C 237.105469 221.75 236.558594 221.84375 236.003906 221.890625 C 235.449219 221.9375 234.894531 221.933594 234.34375 221.886719 C 233.789062 221.839844 233.242188 221.746094 232.703125 221.605469 C 214.832031 216.984375 172.238281 200.910156 168.808594 152.3125 C 168.738281 151.347656 168.8125 150.394531 169.023438 149.449219 C 169.234375 148.503906 169.578125 147.613281 170.050781 146.769531 C 170.527344 145.925781 171.113281 145.171875 171.808594 144.5 C 172.503906 143.828125 173.28125 143.273438 174.144531 142.832031 L 179.945312 139.847656 C 180.523438 139.550781 181.125 139.316406 181.746094 139.136719 C 182.371094 138.957031 183.003906 138.84375 183.652344 138.789062 C 184.296875 138.734375 184.941406 138.746094 185.585938 138.820312 C 186.230469 138.894531 186.859375 139.03125 187.476562 139.226562 C 188.09375 139.425781 188.6875 139.683594 189.253906 139.996094 C 189.820312 140.3125 190.351562 140.679688 190.847656 141.097656 C 191.339844 141.515625 191.789062 141.980469 192.191406 142.488281 C 192.597656 142.996094 192.945312 143.539062 193.242188 144.113281 Z M 193.242188 144.113281 " fill-opacity="1" fill-rule="nonzero"/></svg>