<?xml version="1.0" encoding="UTF-8"?>
<svg xmlns="http://www.w3.org/2000/svg" xmlns:xlink="http://www.w3.org/1999/xlink" version="1.1" viewBox="0 0 500 500">
  <defs>
    <style>
      .cls-1 {
        fill: none;
      }

      .cls-2 {
        fill: #d9d9d9;
      }

      .cls-3 {
        fill: #a6a6a6;
      }

      .cls-4 {
        fill: #fff;
      }

      .cls-5 {
        fill: #f4932d;
      }

      .cls-6 {
        clip-path: url(#clippath);
      }
    </style>
    <clipPath id="clippath">
      <rect class="cls-1" x="257.3" y="133.3" width="218.2" height="196"/>
    </clipPath>
  </defs>
  <!-- Generator: Adobe Illustrator 28.7.0, SVG Export Plug-In . SVG Version: 1.2.0 Build 45)  -->
  <g>
    <g id="Layer_1">
      <path class="cls-3" d="M347.2,78.6l-19.5-19.5C268.7.2,206.7,23.7,205.9,24c0,0,22.2,5.1,40.4,20.4,14.7,12.4,15.6,34.8,2,48.4l3.5,3.5-117.3,117.3,29.6,29.6,117.3-117.3,3.5,3.5,14.6-14.6c2.2,2.2,4.2,4.1,5.8,5.7,2.7,2.6,7,2.6,9.7,0l32.1-32.1c2.7-2.7,2.7-7.1,0-9.8ZM371.9,103.4l-9.6-9.6c-3.6-3.6-9.5-3.6-13.1,0l-28.4,28.4c-3.6,3.6-3.6,9.5,0,13.1l9.6,9.6c3.6,3.6,9.5,3.6,13.1,0l28.4-28.4c3.6-3.6,3.6-9.5,0-13.1ZM58,283.4c-11,9.9-11.5,26.9-1,37.4h0c10.4,10.4,27.5,10,37.4-1l66.1-71.9-30.6-30.6-71.9,66.1"/>
      <path class="cls-2" d="M242.7,285.4h-31.9v-31.9h31.9v31.9"/>
      <path class="cls-2" d="M289.6,285.4h-31.9v-31.9h31.9v31.9"/>
      <path class="cls-2" d="M242.7,328.3h-31.9v-31.9h31.9v31.9"/>
      <path class="cls-2" d="M289.6,328.3h-31.9v-31.9h31.9v31.9"/>
      <g class="cls-6">
        <path class="cls-5" d="M398.2,251v-44l8.6-6.2-40.1-24.3v54.4l-3.8-3.8v-11.5c0,0-82.1-82-82.1-82l-22.8,22.8,171.9,171.9h45.7l-77.3-77.3"/>
      </g>
      <path class="cls-5" d="M276.5,277.6v-42.4h22.2v112.7h-22.2v-51.3h-50.5v51.3h-22.3v-112.7h22.3v42.4h50.5Z"/>
      <path class="cls-4" d="M200,368.1v45.4h-6.5v-20.3h-26.1v20.3h-6.5v-45.4h6.5v19.5h26.1v-19.5h6.5Z"/>
      <path class="cls-4" d="M231,397.8v15.7h-6.4v-15.8l-18-29.6h6.9l14.5,23.9,14.6-23.9h6.4l-18,29.7Z"/>
      <path class="cls-4" d="M255.6,368.1h19.1c4.8,0,9,1,12.8,2.9,3.7,1.9,6.6,4.6,8.7,8,2.1,3.4,3.1,7.4,3.1,11.8s-1,8.4-3.1,11.9c-2.1,3.4-4.9,6.1-8.7,8-3.7,1.9-8,2.9-12.8,2.9h-19.1v-45.4ZM274.3,407.9c3.7,0,6.9-.7,9.7-2.1,2.8-1.4,4.9-3.4,6.5-6,1.5-2.6,2.3-5.6,2.3-8.9s-.8-6.3-2.3-8.9c-1.5-2.6-3.7-4.6-6.5-6-2.8-1.4-6-2.1-9.7-2.1h-12.3v34.1h12.3Z"/>
      <path class="cls-4" d="M342.1,407.9v5.6h-33v-45.4h32v5.6h-25.6v14h22.8v5.5h-22.8v14.7h26.5Z"/>
      <path class="cls-4" d="M176.4,434.9c.7,0,1.5.1,2.2.4.7.3,1.3.7,1.8,1.2l-1,1.3c-.4-.4-.8-.7-1.4-1-.5-.3-1-.4-1.6-.4-1,0-1.9.4-2.6,1.1-.7.7-1.1,1.6-1.1,2.6s.4,1.9,1.1,2.6c.7.7,1.6,1.1,2.6,1.1s2.1-.4,2.9-1.3l1,1.2c-.5.5-1.2,1-1.9,1.3-.7.3-1.4.5-2.2.5-1.5,0-2.8-.5-3.9-1.5-1-1-1.6-2.3-1.6-3.8s.5-2.7,1.6-3.8c1.1-1,2.4-1.5,3.9-1.5Z"/>
      <path class="cls-4" d="M187.2,436.4c1.1-1,2.4-1.5,4-1.5s2.9.5,4,1.5c1.1,1,1.6,2.3,1.6,3.8s-.5,2.7-1.6,3.8c-1.1,1-2.4,1.5-4,1.5s-2.9-.5-4-1.5c-1.1-1-1.6-2.3-1.6-3.8s.5-2.8,1.6-3.8ZM191.2,436.5c-1,0-1.9.4-2.7,1.1-.7.7-1.1,1.6-1.1,2.6s.4,1.9,1.1,2.6c.8.7,1.6,1.1,2.7,1.1s1.9-.4,2.6-1.1c.7-.7,1.1-1.6,1.1-2.6s-.4-1.9-1.1-2.6c-.7-.7-1.6-1.1-2.6-1.1Z"/>
      <path class="cls-4" d="M212,445.4h-1.8l-5.6-7.5v7.5h-1.8v-10.5h1.8l5.6,7.5v-7.5h1.8v10.5Z"/>
      <path class="cls-4" d="M226.2,436.5h-3.3v8.9h-1.8v-8.9h-3.3v-1.6h8.4v1.6Z"/>
      <path class="cls-4" d="M238.6,445.4l-1.9-3.2h-3v3.2h-1.8v-10.5h4.3c1.3,0,2.4.3,3.1.9.7.6,1.1,1.5,1.1,2.6s-.2,1.5-.6,2.1c-.4.6-.9,1-1.6,1.3l2.4,3.5h-2ZM233.8,440.7h2.5c1.7,0,2.6-.7,2.6-2.1s-.9-2-2.6-2h-2.5v4.1Z"/>
      <path class="cls-4" d="M253.9,443.1h-5.3l-1,2.4h-1.8l4.6-10.5h1.8l4.6,10.5h-1.9l-1-2.4ZM253.2,441.5l-2-4.7-2,4.7h4Z"/>
      <path class="cls-4" d="M267.1,434.9c.7,0,1.5.1,2.2.4.7.3,1.3.7,1.8,1.2l-1,1.3c-.4-.4-.8-.7-1.4-1-.5-.3-1-.4-1.6-.4-1,0-1.9.4-2.6,1.1-.7.7-1.1,1.6-1.1,2.6s.4,1.9,1.1,2.6c.7.7,1.6,1.1,2.6,1.1s2.1-.4,2.9-1.3l1,1.2c-.5.5-1.2,1-1.9,1.3-.7.3-1.4.5-2.2.5-1.5,0-2.8-.5-3.9-1.5-1-1-1.6-2.3-1.6-3.8s.5-2.7,1.6-3.8c1.1-1,2.4-1.5,3.9-1.5Z"/>
      <path class="cls-4" d="M284.3,436.5h-3.3v8.9h-1.8v-8.9h-3.3v-1.6h8.4v1.6Z"/>
      <path class="cls-4" d="M290.9,436.4c1.1-1,2.4-1.5,4-1.5s2.9.5,4,1.5c1.1,1,1.6,2.3,1.6,3.8s-.5,2.7-1.6,3.8c-1.1,1-2.4,1.5-4,1.5s-2.9-.5-4-1.5c-1.1-1-1.6-2.3-1.6-3.8s.5-2.8,1.6-3.8ZM294.8,436.5c-1,0-1.9.4-2.7,1.1-.7.7-1.1,1.6-1.1,2.6s.4,1.9,1.1,2.6c.8.7,1.6,1.1,2.7,1.1s1.9-.4,2.6-1.1c.7-.7,1.1-1.6,1.1-2.6s-.4-1.9-1.1-2.6c-.7-.7-1.6-1.1-2.6-1.1Z"/>
      <path class="cls-4" d="M313.2,445.4l-1.9-3.2h-3v3.2h-1.8v-10.5h4.3c1.3,0,2.4.3,3.1.9.7.6,1.1,1.5,1.1,2.6s-.2,1.5-.6,2.1c-.4.6-.9,1-1.6,1.3l2.4,3.5h-2ZM308.3,440.7h2.5c1.7,0,2.6-.7,2.6-2.1s-.9-2-2.6-2h-2.5v4.1Z"/>
      <path class="cls-4" d="M325.1,434.9c1.3,0,2.6.4,3.7,1.1l-.8,1.6c-1.1-.7-2.1-1-3.1-1s-.9,0-1.3.3c-.3.2-.5.5-.5.8s.1.6.4.9c.3.2.6.4,1,.5.4.1.9.3,1.4.4.5.2.9.4,1.4.6.4.2.8.5,1,.9.3.4.4.9.4,1.5,0,.9-.4,1.7-1.1,2.2-.7.5-1.7.8-2.9.8s-1.6-.1-2.3-.4c-.8-.3-1.4-.7-2-1.2l.8-1.5c.5.5,1.1.9,1.8,1.1.6.3,1.2.4,1.8.4s1.1-.1,1.4-.3c.3-.2.5-.5.5-.9s-.1-.7-.4-.9c-.3-.3-.6-.4-1.1-.5-.4-.1-.9-.3-1.4-.4-.5-.2-.9-.3-1.4-.5-.4-.2-.8-.5-1-.9-.3-.4-.4-.9-.4-1.5,0-.9.3-1.6,1-2.1.7-.5,1.6-.8,2.8-.8Z"/>
    </g>
  </g>
</svg>