<?xml version="1.0" encoding="UTF-8"?>
<svg xmlns="http://www.w3.org/2000/svg" xmlns:xlink="http://www.w3.org/1999/xlink" version="1.1" viewBox="0 0 500 500">
  <defs>
    <style>
      .cls-1 {
        fill: none;
      }

      .cls-2 {
        fill: #d9d9d9;
      }

      .cls-3 {
        fill: #3d4145;
      }

      .cls-4 {
        fill: #fff;
      }

      .cls-5 {
        fill: #f4932d;
      }

      .cls-6 {
        clip-path: url(#clippath);
      }
    </style>
    <clipPath id="clippath">
      <rect class="cls-1" x="246.7" y="142.7" width="219.8" height="198.7"/>
    </clipPath>
  </defs>
  <!-- Generator: Adobe Illustrator 28.7.0, SVG Export Plug-In . SVG Version: 1.2.0 Build 45)  -->
  <g>
    <g id="Layer_1">
      <rect class="cls-4" x="-50" y="-50" width="600" height="600"/>
      <rect class="cls-3" x="-50" y="-50" width="600" height="600"/>
      <path class="cls-2" d="M336.9,88.2l-19.7-19.7c-59.5-59.5-122.1-35.8-122.8-35.5,0,0,22.4,5.2,40.8,20.6,14.9,12.5,15.7,35.1,2,48.9l3.6,3.6-118.4,118.4,29.9,29.9,118.4-118.4,3.6,3.6,14.7-14.7c2.2,2.2,4.2,4.2,5.9,5.8,2.8,2.7,7.1,2.6,9.8,0l32.4-32.4c2.7-2.7,2.7-7.2,0-9.9ZM361.9,113.1l-9.7-9.7c-3.6-3.6-9.5-3.6-13.2,0l-28.7,28.7c-3.6,3.6-3.6,9.5,0,13.2l9.7,9.7c3.6,3.6,9.5,3.6,13.2,0l28.7-28.7c3.6-3.6,3.6-9.5,0-13.2ZM45.1,294.9c-11.1,10-11.6,27.2-1,37.7h0c10.5,10.5,27.8,10.1,37.7-1l66.8-72.5-30.9-30.9-72.5,66.8"/>
      <path class="cls-4" d="M231.5,296.9h-32.2v-32.2h32.2v32.2"/>
      <path class="cls-4" d="M278.8,296.9h-32.2v-32.2h32.2v32.2"/>
      <path class="cls-4" d="M231.5,340.2h-32.2v-32.2h32.2v32.2"/>
      <path class="cls-4" d="M278.8,340.2h-32.2v-32.2h32.2v32.2"/>
      <g class="cls-6">
        <path class="cls-5" d="M388.5,262.2v-44.4l8.7-6.2-40.5-24.5v54.9l-3.9-3.9v-11.6c0,0-82.9-82.8-82.9-82.8l-23.1,23.1,173.5,173.5h46.1l-78-78"/>
      </g>
      <path class="cls-4" d="M188.7,377.6v45.8h-6.5v-20.4h-26.3v20.4h-6.5v-45.8h6.5v19.7h26.3v-19.7h6.5Z"/>
      <path class="cls-4" d="M220,407.5v15.9h-6.5v-16l-18.2-29.9h7l14.7,24.2,14.7-24.2h6.5l-18.2,30Z"/>
      <path class="cls-4" d="M244.8,377.6h19.3c4.8,0,9.1,1,12.9,2.9,3.8,1.9,6.7,4.6,8.8,8.1,2.1,3.5,3.1,7.5,3.1,12s-1,8.5-3.1,12c-2.1,3.5-5,6.2-8.8,8.1-3.8,1.9-8.1,2.9-12.9,2.9h-19.3v-45.8ZM263.7,417.7c3.7,0,7-.7,9.8-2.2,2.8-1.4,5-3.5,6.5-6.1,1.5-2.6,2.3-5.6,2.3-9s-.8-6.4-2.3-9c-1.5-2.6-3.7-4.6-6.5-6.1-2.8-1.4-6.1-2.2-9.8-2.2h-12.4v34.5h12.4Z"/>
      <path class="cls-4" d="M332.2,417.7v5.7h-33.3v-45.8h32.4v5.7h-25.8v14.1h23v5.6h-23v14.8h26.7Z"/>
      <path class="cls-4" d="M164.9,445c.8,0,1.5.1,2.2.4.7.3,1.3.7,1.8,1.2l-1,1.3c-.4-.4-.8-.7-1.4-1-.5-.3-1-.4-1.6-.4-1.1,0-2,.4-2.7,1.1-.7.7-1.1,1.6-1.1,2.6s.4,1.9,1.1,2.7c.7.7,1.6,1.1,2.7,1.1s2.1-.4,3-1.3l1.1,1.2c-.6.5-1.2,1-1.9,1.3-.7.3-1.5.5-2.2.5-1.6,0-2.9-.5-3.9-1.5-1.1-1-1.6-2.3-1.6-3.9s.5-2.8,1.6-3.8c1.1-1,2.4-1.5,4-1.5Z"/>
      <path class="cls-4" d="M175.8,446.5c1.1-1,2.4-1.5,4-1.5s2.9.5,4,1.5c1.1,1,1.6,2.3,1.6,3.8s-.5,2.8-1.6,3.8c-1.1,1-2.4,1.5-4,1.5s-2.9-.5-4-1.5c-1.1-1-1.6-2.3-1.6-3.8s.5-2.8,1.6-3.8ZM179.8,446.6c-1.1,0-2,.4-2.7,1.1-.7.7-1.1,1.6-1.1,2.6s.4,1.9,1.1,2.7c.8.7,1.6,1.1,2.7,1.1s1.9-.4,2.7-1.1c.7-.7,1.1-1.6,1.1-2.7s-.4-1.9-1.1-2.6c-.7-.7-1.6-1.1-2.7-1.1Z"/>
      <path class="cls-4" d="M200.8,455.6h-1.8l-5.6-7.6v7.6h-1.8v-10.6h1.8l5.7,7.6v-7.6h1.8v10.6Z"/>
      <path class="cls-4" d="M215.1,446.6h-3.4v9h-1.8v-9h-3.3v-1.6h8.5v1.6Z"/>
      <path class="cls-4" d="M227.7,455.6l-1.9-3.2c0,0-.3,0-.5,0h-2.5v3.2h-1.8v-10.6h4.3c1.3,0,2.4.3,3.1,1,.8.6,1.1,1.5,1.1,2.6s-.2,1.6-.6,2.2c-.4.6-.9,1-1.6,1.3l2.4,3.5h-2ZM222.8,450.8h2.5c1.7,0,2.6-.7,2.6-2.1s-.9-2-2.6-2h-2.5v4.2Z"/>
      <path class="cls-4" d="M243.1,453.2h-5.3l-1,2.4h-1.9l4.7-10.6h1.8l4.6,10.6h-1.9l-1-2.4ZM242.4,451.6l-2-4.7-2,4.7h4Z"/>
      <path class="cls-4" d="M256.4,445c.8,0,1.5.1,2.2.4.7.3,1.3.7,1.8,1.2l-1,1.3c-.4-.4-.8-.7-1.4-1-.5-.3-1-.4-1.6-.4-1.1,0-2,.4-2.7,1.1-.7.7-1.1,1.6-1.1,2.6s.4,1.9,1.1,2.7c.7.7,1.6,1.1,2.7,1.1s2.1-.4,3-1.3l1.1,1.2c-.6.5-1.2,1-1.9,1.3-.7.3-1.5.5-2.2.5-1.6,0-2.9-.5-3.9-1.5-1.1-1-1.6-2.3-1.6-3.9s.5-2.8,1.6-3.8c1.1-1,2.4-1.5,4-1.5Z"/>
      <path class="cls-4" d="M273.8,446.6h-3.4v9h-1.8v-9h-3.3v-1.6h8.5v1.6Z"/>
      <path class="cls-4" d="M280.4,446.5c1.1-1,2.4-1.5,4-1.5s2.9.5,4,1.5c1.1,1,1.6,2.3,1.6,3.8s-.5,2.8-1.6,3.8c-1.1,1-2.4,1.5-4,1.5s-2.9-.5-4-1.5c-1.1-1-1.6-2.3-1.6-3.8s.5-2.8,1.6-3.8ZM284.4,446.6c-1.1,0-2,.4-2.7,1.1-.7.7-1.1,1.6-1.1,2.6s.4,1.9,1.1,2.7c.8.7,1.6,1.1,2.7,1.1s1.9-.4,2.7-1.1c.7-.7,1.1-1.6,1.1-2.7s-.4-1.9-1.1-2.6c-.7-.7-1.6-1.1-2.7-1.1Z"/>
      <path class="cls-4" d="M303,455.6l-1.9-3.2c0,0-.3,0-.5,0h-2.5v3.2h-1.8v-10.6h4.3c1.3,0,2.4.3,3.1,1,.8.6,1.1,1.5,1.1,2.6s-.2,1.6-.6,2.2c-.4.6-.9,1-1.6,1.3l2.4,3.5h-2ZM298,450.8h2.5c1.7,0,2.6-.7,2.6-2.1s-.9-2-2.6-2h-2.5v4.2Z"/>
      <path class="cls-4" d="M315,444.9c1.4,0,2.6.4,3.7,1.1l-.8,1.6c-1.1-.7-2.1-1-3.1-1s-1,0-1.3.3c-.3.2-.5.5-.5.8s.1.6.4.9c.3.3.6.4,1.1.5.4.1.9.3,1.4.4.5.2,1,.4,1.4.6.4.2.8.5,1.1.9.3.4.4.9.4,1.5,0,.9-.4,1.7-1.1,2.2-.7.6-1.7.8-2.9.8s-1.6-.2-2.4-.5c-.8-.3-1.4-.7-2-1.2l.8-1.5c.5.5,1.1.9,1.8,1.1.7.3,1.3.4,1.8.4s1.1-.1,1.5-.3c.3-.2.5-.5.5-.9s-.1-.7-.4-.9c-.3-.3-.6-.4-1.1-.5-.4-.1-.9-.3-1.4-.4-.5-.2-.9-.3-1.4-.5-.4-.2-.8-.5-1-.9-.3-.4-.4-.9-.4-1.5,0-.9.3-1.6,1-2.1.7-.5,1.6-.8,2.8-.8Z"/>
      <path class="cls-5" d="M263.7,294v-42.8h22.4v113.7h-22.4v-51.8h-50.9v51.8h-22.5v-113.7h22.5v42.8h50.9Z"/>
    </g>
  </g>
</svg>