<svg xmlns="http://www.w3.org/2000/svg" xmlns:xlink="http://www.w3.org/1999/xlink" width="500" zoomAndPan="magnify" viewBox="0 0 375 374.999991" height="500" preserveAspectRatio="xMidYMid meet" version="1.0"><defs><g/><linearGradient x1="0" gradientTransform="matrix(0.75, 0, 0, 0.75, 0.0000045, 0)" y1="250" x2="499.999979" gradientUnits="userSpaceOnUse" y2="250" id="9649cfe33a"><stop stop-opacity="1" stop-color="rgb(0%, 0%, 0%)" offset="0"/><stop stop-opacity="1" stop-color="rgb(0.175476%, 0.175476%, 0.175476%)" offset="0.0078125"/><stop stop-opacity="1" stop-color="rgb(0.526428%, 0.526428%, 0.526428%)" offset="0.015625"/><stop stop-opacity="1" stop-color="rgb(0.878906%, 0.878906%, 0.878906%)" offset="0.0234375"/><stop stop-opacity="1" stop-color="rgb(1.231384%, 1.231384%, 1.231384%)" offset="0.03125"/><stop stop-opacity="1" stop-color="rgb(1.583862%, 1.583862%, 1.583862%)" offset="0.0390625"/><stop stop-opacity="1" stop-color="rgb(1.93634%, 1.93634%, 1.93634%)" offset="0.046875"/><stop stop-opacity="1" stop-color="rgb(2.288818%, 2.288818%, 2.288818%)" offset="0.0546875"/><stop stop-opacity="1" stop-color="rgb(2.641296%, 2.641296%, 2.641296%)" offset="0.0625"/><stop stop-opacity="1" stop-color="rgb(2.993774%, 2.993774%, 2.993774%)" offset="0.0703125"/><stop stop-opacity="1" stop-color="rgb(3.346252%, 3.346252%, 3.346252%)" offset="0.078125"/><stop stop-opacity="1" stop-color="rgb(3.69873%, 3.69873%, 3.69873%)" offset="0.0859375"/><stop stop-opacity="1" stop-color="rgb(4.051208%, 4.051208%, 4.051208%)" offset="0.09375"/><stop stop-opacity="1" stop-color="rgb(4.402161%, 4.402161%, 4.402161%)" offset="0.101562"/><stop stop-opacity="1" stop-color="rgb(4.754639%, 4.754639%, 4.754639%)" offset="0.109375"/><stop stop-opacity="1" stop-color="rgb(5.107117%, 5.107117%, 5.107117%)" offset="0.117188"/><stop stop-opacity="1" stop-color="rgb(5.459595%, 5.459595%, 5.459595%)" offset="0.125"/><stop stop-opacity="1" stop-color="rgb(5.812073%, 5.812073%, 5.812073%)" offset="0.132812"/><stop stop-opacity="1" stop-color="rgb(6.164551%, 6.164551%, 6.164551%)" offset="0.140625"/><stop stop-opacity="1" stop-color="rgb(6.517029%, 6.517029%, 6.517029%)" offset="0.148437"/><stop stop-opacity="1" stop-color="rgb(6.869507%, 6.869507%, 6.869507%)" offset="0.15625"/><stop stop-opacity="1" stop-color="rgb(7.221985%, 7.221985%, 7.221985%)" offset="0.164062"/><stop stop-opacity="1" stop-color="rgb(7.574463%, 7.574463%, 7.574463%)" offset="0.171875"/><stop stop-opacity="1" stop-color="rgb(7.926941%, 7.926941%, 7.926941%)" offset="0.179687"/><stop stop-opacity="1" stop-color="rgb(8.277893%, 8.277893%, 8.277893%)" offset="0.1875"/><stop stop-opacity="1" stop-color="rgb(8.630371%, 8.630371%, 8.630371%)" offset="0.195312"/><stop stop-opacity="1" stop-color="rgb(8.982849%, 8.982849%, 8.982849%)" offset="0.203125"/><stop stop-opacity="1" stop-color="rgb(9.335327%, 9.335327%, 9.335327%)" offset="0.210938"/><stop stop-opacity="1" stop-color="rgb(9.687805%, 9.687805%, 9.687805%)" offset="0.21875"/><stop stop-opacity="1" stop-color="rgb(10.040283%, 10.040283%, 10.040283%)" offset="0.226562"/><stop stop-opacity="1" stop-color="rgb(10.392761%, 10.392761%, 10.392761%)" offset="0.234375"/><stop stop-opacity="1" stop-color="rgb(10.745239%, 10.745239%, 10.745239%)" offset="0.242188"/><stop stop-opacity="1" stop-color="rgb(11.097717%, 11.097717%, 11.097717%)" offset="0.25"/><stop stop-opacity="1" stop-color="rgb(11.450195%, 11.450195%, 11.450195%)" offset="0.257812"/><stop stop-opacity="1" stop-color="rgb(11.802673%, 11.802673%, 11.802673%)" offset="0.265625"/><stop stop-opacity="1" stop-color="rgb(12.155151%, 12.155151%, 12.155151%)" offset="0.273437"/><stop stop-opacity="1" stop-color="rgb(12.506104%, 12.506104%, 12.506104%)" offset="0.28125"/><stop stop-opacity="1" stop-color="rgb(12.858582%, 12.858582%, 12.858582%)" offset="0.289062"/><stop stop-opacity="1" stop-color="rgb(13.21106%, 13.21106%, 13.21106%)" offset="0.296875"/><stop stop-opacity="1" stop-color="rgb(13.563538%, 13.563538%, 13.563538%)" offset="0.304687"/><stop stop-opacity="1" stop-color="rgb(13.916016%, 13.916016%, 13.916016%)" offset="0.3125"/><stop stop-opacity="1" stop-color="rgb(14.268494%, 14.268494%, 14.268494%)" offset="0.320312"/><stop stop-opacity="1" stop-color="rgb(14.620972%, 14.620972%, 14.620972%)" offset="0.328125"/><stop stop-opacity="1" stop-color="rgb(14.97345%, 14.97345%, 14.97345%)" offset="0.335937"/><stop stop-opacity="1" stop-color="rgb(15.325928%, 15.325928%, 15.325928%)" offset="0.34375"/><stop stop-opacity="1" stop-color="rgb(15.678406%, 15.678406%, 15.678406%)" offset="0.351562"/><stop stop-opacity="1" stop-color="rgb(16.030884%, 16.030884%, 16.030884%)" offset="0.359375"/><stop stop-opacity="1" stop-color="rgb(16.381836%, 16.381836%, 16.381836%)" offset="0.367187"/><stop stop-opacity="1" stop-color="rgb(16.734314%, 16.734314%, 16.734314%)" offset="0.375"/><stop stop-opacity="1" stop-color="rgb(17.086792%, 17.086792%, 17.086792%)" offset="0.382812"/><stop stop-opacity="1" stop-color="rgb(17.43927%, 17.43927%, 17.43927%)" offset="0.390625"/><stop stop-opacity="1" stop-color="rgb(17.791748%, 17.791748%, 17.791748%)" offset="0.398438"/><stop stop-opacity="1" stop-color="rgb(18.144226%, 18.144226%, 18.144226%)" offset="0.40625"/><stop stop-opacity="1" stop-color="rgb(18.496704%, 18.496704%, 18.496704%)" offset="0.414062"/><stop stop-opacity="1" stop-color="rgb(18.849182%, 18.849182%, 18.849182%)" offset="0.421875"/><stop stop-opacity="1" stop-color="rgb(19.20166%, 19.20166%, 19.20166%)" offset="0.429688"/><stop stop-opacity="1" stop-color="rgb(19.554138%, 19.554138%, 19.554138%)" offset="0.4375"/><stop stop-opacity="1" stop-color="rgb(19.906616%, 19.906616%, 19.906616%)" offset="0.445312"/><stop stop-opacity="1" stop-color="rgb(20.257568%, 20.257568%, 20.257568%)" offset="0.453125"/><stop stop-opacity="1" stop-color="rgb(20.610046%, 20.610046%, 20.610046%)" offset="0.460938"/><stop stop-opacity="1" stop-color="rgb(20.962524%, 20.962524%, 20.962524%)" offset="0.46875"/><stop stop-opacity="1" stop-color="rgb(21.315002%, 21.315002%, 21.315002%)" offset="0.476562"/><stop stop-opacity="1" stop-color="rgb(21.66748%, 21.66748%, 21.66748%)" offset="0.484375"/><stop stop-opacity="1" stop-color="rgb(22.019958%, 22.019958%, 22.019958%)" offset="0.492188"/><stop stop-opacity="1" stop-color="rgb(22.372437%, 22.372437%, 22.372437%)" offset="0.5"/><stop stop-opacity="1" stop-color="rgb(22.724915%, 22.724915%, 22.724915%)" offset="0.507812"/><stop stop-opacity="1" stop-color="rgb(23.077393%, 23.077393%, 23.077393%)" offset="0.515625"/><stop stop-opacity="1" stop-color="rgb(23.429871%, 23.429871%, 23.429871%)" offset="0.523437"/><stop stop-opacity="1" stop-color="rgb(23.782349%, 23.782349%, 23.782349%)" offset="0.53125"/><stop stop-opacity="1" stop-color="rgb(24.134827%, 24.134827%, 24.134827%)" offset="0.539062"/><stop stop-opacity="1" stop-color="rgb(24.485779%, 24.485779%, 24.485779%)" offset="0.546875"/><stop stop-opacity="1" stop-color="rgb(24.838257%, 24.838257%, 24.838257%)" offset="0.554687"/><stop stop-opacity="1" stop-color="rgb(25.190735%, 25.190735%, 25.190735%)" offset="0.5625"/><stop stop-opacity="1" stop-color="rgb(25.543213%, 25.543213%, 25.543213%)" offset="0.570312"/><stop stop-opacity="1" stop-color="rgb(25.895691%, 25.895691%, 25.895691%)" offset="0.578125"/><stop stop-opacity="1" stop-color="rgb(26.248169%, 26.248169%, 26.248169%)" offset="0.585937"/><stop stop-opacity="1" stop-color="rgb(26.600647%, 26.600647%, 26.600647%)" offset="0.59375"/><stop stop-opacity="1" stop-color="rgb(26.953125%, 26.953125%, 26.953125%)" offset="0.601562"/><stop stop-opacity="1" stop-color="rgb(27.305603%, 27.305603%, 27.305603%)" offset="0.609375"/><stop stop-opacity="1" stop-color="rgb(27.658081%, 27.658081%, 27.658081%)" offset="0.617187"/><stop stop-opacity="1" stop-color="rgb(28.010559%, 28.010559%, 28.010559%)" offset="0.625"/><stop stop-opacity="1" stop-color="rgb(28.361511%, 28.361511%, 28.361511%)" offset="0.632812"/><stop stop-opacity="1" stop-color="rgb(28.713989%, 28.713989%, 28.713989%)" offset="0.640625"/><stop stop-opacity="1" stop-color="rgb(29.066467%, 29.066467%, 29.066467%)" offset="0.648437"/><stop stop-opacity="1" stop-color="rgb(29.418945%, 29.418945%, 29.418945%)" offset="0.65625"/><stop stop-opacity="1" stop-color="rgb(29.771423%, 29.771423%, 29.771423%)" offset="0.664062"/><stop stop-opacity="1" stop-color="rgb(30.123901%, 30.123901%, 30.123901%)" offset="0.671875"/><stop stop-opacity="1" stop-color="rgb(30.476379%, 30.476379%, 30.476379%)" offset="0.679687"/><stop stop-opacity="1" stop-color="rgb(30.828857%, 30.828857%, 30.828857%)" offset="0.6875"/><stop stop-opacity="1" stop-color="rgb(31.181335%, 31.181335%, 31.181335%)" offset="0.695312"/><stop stop-opacity="1" stop-color="rgb(31.533813%, 31.533813%, 31.533813%)" offset="0.703125"/><stop stop-opacity="1" stop-color="rgb(31.886292%, 31.886292%, 31.886292%)" offset="0.710937"/><stop stop-opacity="1" stop-color="rgb(32.237244%, 32.237244%, 32.237244%)" offset="0.71875"/><stop stop-opacity="1" stop-color="rgb(32.589722%, 32.589722%, 32.589722%)" offset="0.726562"/><stop stop-opacity="1" stop-color="rgb(32.9422%, 32.9422%, 32.9422%)" offset="0.734375"/><stop stop-opacity="1" stop-color="rgb(33.294678%, 33.294678%, 33.294678%)" offset="0.742187"/><stop stop-opacity="1" stop-color="rgb(33.647156%, 33.647156%, 33.647156%)" offset="0.75"/><stop stop-opacity="1" stop-color="rgb(33.999634%, 33.999634%, 33.999634%)" offset="0.757812"/><stop stop-opacity="1" stop-color="rgb(34.352112%, 34.352112%, 34.352112%)" offset="0.765625"/><stop stop-opacity="1" stop-color="rgb(34.70459%, 34.70459%, 34.70459%)" offset="0.773438"/><stop stop-opacity="1" stop-color="rgb(35.057068%, 35.057068%, 35.057068%)" offset="0.78125"/><stop stop-opacity="1" stop-color="rgb(35.409546%, 35.409546%, 35.409546%)" offset="0.789062"/><stop stop-opacity="1" stop-color="rgb(35.762024%, 35.762024%, 35.762024%)" offset="0.796875"/><stop stop-opacity="1" stop-color="rgb(36.114502%, 36.114502%, 36.114502%)" offset="0.804688"/><stop stop-opacity="1" stop-color="rgb(36.465454%, 36.465454%, 36.465454%)" offset="0.8125"/><stop stop-opacity="1" stop-color="rgb(36.817932%, 36.817932%, 36.817932%)" offset="0.820312"/><stop stop-opacity="1" stop-color="rgb(37.17041%, 37.17041%, 37.17041%)" offset="0.828125"/><stop stop-opacity="1" stop-color="rgb(37.522888%, 37.522888%, 37.522888%)" offset="0.835938"/><stop stop-opacity="1" stop-color="rgb(37.875366%, 37.875366%, 37.875366%)" offset="0.84375"/><stop stop-opacity="1" stop-color="rgb(38.227844%, 38.227844%, 38.227844%)" offset="0.851562"/><stop stop-opacity="1" stop-color="rgb(38.580322%, 38.580322%, 38.580322%)" offset="0.859375"/><stop stop-opacity="1" stop-color="rgb(38.9328%, 38.9328%, 38.9328%)" offset="0.867188"/><stop stop-opacity="1" stop-color="rgb(39.285278%, 39.285278%, 39.285278%)" offset="0.875"/><stop stop-opacity="1" stop-color="rgb(39.637756%, 39.637756%, 39.637756%)" offset="0.882812"/><stop stop-opacity="1" stop-color="rgb(39.990234%, 39.990234%, 39.990234%)" offset="0.890625"/><stop stop-opacity="1" stop-color="rgb(40.341187%, 40.341187%, 40.341187%)" offset="0.898438"/><stop stop-opacity="1" stop-color="rgb(40.693665%, 40.693665%, 40.693665%)" offset="0.90625"/><stop stop-opacity="1" stop-color="rgb(41.046143%, 41.046143%, 41.046143%)" offset="0.914062"/><stop stop-opacity="1" stop-color="rgb(41.398621%, 41.398621%, 41.398621%)" offset="0.921875"/><stop stop-opacity="1" stop-color="rgb(41.751099%, 41.751099%, 41.751099%)" offset="0.929688"/><stop stop-opacity="1" stop-color="rgb(42.103577%, 42.103577%, 42.103577%)" offset="0.9375"/><stop stop-opacity="1" stop-color="rgb(42.456055%, 42.456055%, 42.456055%)" offset="0.945312"/><stop stop-opacity="1" stop-color="rgb(42.808533%, 42.808533%, 42.808533%)" offset="0.953125"/><stop stop-opacity="1" stop-color="rgb(43.161011%, 43.161011%, 43.161011%)" offset="0.960938"/><stop stop-opacity="1" stop-color="rgb(43.513489%, 43.513489%, 43.513489%)" offset="0.96875"/><stop stop-opacity="1" stop-color="rgb(43.865967%, 43.865967%, 43.865967%)" offset="0.976562"/><stop stop-opacity="1" stop-color="rgb(44.216919%, 44.216919%, 44.216919%)" offset="0.984375"/><stop stop-opacity="1" stop-color="rgb(44.569397%, 44.569397%, 44.569397%)" offset="0.992188"/><stop stop-opacity="1" stop-color="rgb(44.921875%, 44.921875%, 44.921875%)" offset="1"/></linearGradient><clipPath id="471694085d"><path d="M 193 100 L 356.667969 100 L 356.667969 247 L 193 247 Z M 193 100 " clip-rule="nonzero"/></clipPath></defs><rect x="-37.5" fill="url(#9649cfe33a)" width="450" y="-37.499999" height="449.999989"/><path fill="#a6a6a6" d="M 260.367188 58.96875 L 245.730469 44.332031 C 201.523438 0.125 155.046875 17.75 154.460938 17.996094 C 154.460938 17.996094 171.09375 21.824219 184.773438 33.332031 C 195.824219 42.628906 196.453125 59.441406 186.242188 69.65625 L 188.882812 72.292969 L 100.9375 160.238281 L 123.121094 182.421875 L 211.066406 94.480469 L 213.707031 97.121094 L 224.65625 86.167969 C 226.292969 87.800781 227.78125 89.253906 229.019531 90.449219 C 231.0625 92.417969 234.300781 92.386719 236.308594 90.382812 L 260.367188 66.324219 C 262.398438 64.292969 262.398438 61 260.367188 58.96875 Z M 278.914062 77.515625 L 271.703125 70.304688 C 268.996094 67.597656 264.609375 67.597656 261.90625 70.304688 L 240.617188 91.59375 C 237.910156 94.296875 237.910156 98.683594 240.617188 101.390625 L 247.824219 108.601562 C 250.535156 111.308594 254.921875 111.308594 257.625 108.601562 L 278.914062 87.3125 C 281.621094 84.609375 281.621094 80.222656 278.914062 77.515625 Z M 43.535156 212.550781 C 35.292969 219.949219 34.945312 232.75 42.777344 240.578125 L 42.777344 240.582031 C 50.613281 248.414062 63.410156 248.066406 70.808594 239.824219 L 120.414062 185.921875 L 97.4375 162.945312 L 43.535156 212.550781 " fill-opacity="1" fill-rule="nonzero"/><path fill="#d9d9d9" d="M 182.003906 214.046875 L 158.113281 214.046875 L 158.113281 190.15625 L 182.003906 190.15625 L 182.003906 214.046875 " fill-opacity="1" fill-rule="nonzero"/><path fill="#d9d9d9" d="M 217.183594 214.046875 L 193.289062 214.046875 L 193.289062 190.15625 L 217.183594 190.15625 L 217.183594 214.046875 " fill-opacity="1" fill-rule="nonzero"/><path fill="#d9d9d9" d="M 182.003906 246.238281 L 158.113281 246.238281 L 158.113281 222.34375 L 182.003906 222.34375 L 182.003906 246.238281 " fill-opacity="1" fill-rule="nonzero"/><path fill="#d9d9d9" d="M 217.183594 246.238281 L 193.289062 246.238281 L 193.289062 222.34375 L 217.183594 222.34375 L 217.183594 246.238281 " fill-opacity="1" fill-rule="nonzero"/><g clip-path="url(#471694085d)"><path fill="#f4932d" d="M 298.65625 188.261719 L 298.65625 155.296875 L 305.121094 150.671875 L 275.058594 132.460938 L 275.058594 173.226562 L 272.175781 170.34375 L 272.132812 161.734375 L 210.609375 100.214844 L 193.480469 117.34375 L 322.375 246.238281 L 356.632812 246.238281 L 298.65625 188.261719 " fill-opacity="1" fill-rule="nonzero"/></g><g fill="#f4932d" fill-opacity="1"><g transform="translate(140.832389, 252.311547)"><g><path d="M 65.53125 -52.703125 L 65.53125 -84.5 L 82.1875 -84.5 L 82.1875 0 L 65.53125 0 L 65.53125 -38.484375 L 27.6875 -38.484375 L 27.6875 0 L 10.984375 0 L 10.984375 -84.5 L 27.6875 -84.5 L 27.6875 -52.703125 Z M 65.53125 -52.703125 "/></g></g></g><g fill="#ffffff" fill-opacity="1"><g transform="translate(115.619884, 310.147133)"><g><path d="M 34.40625 -34.0625 L 34.40625 0 L 29.53125 0 L 29.53125 -15.1875 L 9.96875 -15.1875 L 9.96875 0 L 5.109375 0 L 5.109375 -34.0625 L 9.96875 -34.0625 L 9.96875 -19.40625 L 29.53125 -19.40625 L 29.53125 -34.0625 Z M 34.40625 -34.0625 "/></g></g></g><g fill="#ffffff" fill-opacity="1"><g transform="translate(155.116221, 310.147133)"><g><path d="M 18.15625 -11.78125 L 18.15625 0 L 13.328125 0 L 13.328125 -11.875 L -0.1875 -34.0625 L 5.015625 -34.0625 L 15.90625 -16.109375 L 26.859375 -34.0625 L 31.671875 -34.0625 Z M 18.15625 -11.78125 "/></g></g></g><g fill="#ffffff" fill-opacity="1"><g transform="translate(186.586815, 310.147133)"><g><path d="M 5.109375 -34.0625 L 19.46875 -34.0625 C 23.0625 -34.0625 26.253906 -33.347656 29.046875 -31.921875 C 31.835938 -30.492188 34.003906 -28.488281 35.546875 -25.90625 C 37.085938 -23.332031 37.859375 -20.375 37.859375 -17.03125 C 37.859375 -13.6875 37.085938 -10.722656 35.546875 -8.140625 C 34.003906 -5.566406 31.835938 -3.566406 29.046875 -2.140625 C 26.253906 -0.710938 23.0625 0 19.46875 0 L 5.109375 0 Z M 19.171875 -4.234375 C 21.929688 -4.234375 24.351562 -4.765625 26.4375 -5.828125 C 28.53125 -6.898438 30.144531 -8.398438 31.28125 -10.328125 C 32.414062 -12.265625 32.984375 -14.5 32.984375 -17.03125 C 32.984375 -19.5625 32.414062 -21.789062 31.28125 -23.71875 C 30.144531 -25.644531 28.53125 -27.144531 26.4375 -28.21875 C 24.351562 -29.289062 21.929688 -29.828125 19.171875 -29.828125 L 9.96875 -29.828125 L 9.96875 -4.234375 Z M 19.171875 -4.234375 "/></g></g></g><g fill="#ffffff" fill-opacity="1"><g transform="translate(226.764116, 310.147133)"><g><path d="M 29.828125 -4.234375 L 29.828125 0 L 5.109375 0 L 5.109375 -34.0625 L 29.140625 -34.0625 L 29.140625 -29.828125 L 9.96875 -29.828125 L 9.96875 -19.359375 L 27.046875 -19.359375 L 27.046875 -15.234375 L 9.96875 -15.234375 L 9.96875 -4.234375 Z M 29.828125 -4.234375 "/></g></g></g><g fill="#ffffff" fill-opacity="1"><g transform="translate(127.777917, 334.072899)"><g><path d="M 4.515625 -7.890625 C 5.066406 -7.890625 5.609375 -7.78125 6.140625 -7.5625 C 6.671875 -7.351562 7.125 -7.0625 7.5 -6.6875 L 6.734375 -5.71875 C 6.441406 -6.019531 6.101562 -6.257812 5.71875 -6.4375 C 5.332031 -6.625 4.9375 -6.71875 4.53125 -6.71875 C 3.75 -6.71875 3.085938 -6.445312 2.546875 -5.90625 C 2.003906 -5.375 1.734375 -4.722656 1.734375 -3.953125 C 1.734375 -3.171875 2.003906 -2.507812 2.546875 -1.96875 C 3.085938 -1.4375 3.75 -1.171875 4.53125 -1.171875 C 5.351562 -1.171875 6.085938 -1.484375 6.734375 -2.109375 L 7.515625 -1.234375 C 7.109375 -0.835938 6.632812 -0.519531 6.09375 -0.28125 C 5.5625 -0.0507812 5.019531 0.0625 4.46875 0.0625 C 3.3125 0.0625 2.335938 -0.320312 1.546875 -1.09375 C 0.765625 -1.863281 0.375 -2.8125 0.375 -3.9375 C 0.375 -5.050781 0.773438 -5.988281 1.578125 -6.75 C 2.378906 -7.507812 3.359375 -7.890625 4.515625 -7.890625 Z M 4.515625 -7.890625 "/></g></g></g><g fill="#ffffff" fill-opacity="1"><g transform="translate(138.822297, 334.072899)"><g><path d="M 1.578125 -6.75 C 2.378906 -7.507812 3.367188 -7.890625 4.546875 -7.890625 C 5.722656 -7.890625 6.710938 -7.507812 7.515625 -6.75 C 8.316406 -5.988281 8.71875 -5.046875 8.71875 -3.921875 C 8.71875 -2.804688 8.316406 -1.863281 7.515625 -1.09375 C 6.710938 -0.320312 5.722656 0.0625 4.546875 0.0625 C 3.367188 0.0625 2.378906 -0.320312 1.578125 -1.09375 C 0.773438 -1.863281 0.375 -2.804688 0.375 -3.921875 C 0.375 -5.046875 0.773438 -5.988281 1.578125 -6.75 Z M 4.5625 -6.703125 C 3.78125 -6.703125 3.113281 -6.429688 2.5625 -5.890625 C 2.007812 -5.359375 1.734375 -4.703125 1.734375 -3.921875 C 1.734375 -3.148438 2.007812 -2.492188 2.5625 -1.953125 C 3.125 -1.410156 3.789062 -1.140625 4.5625 -1.140625 C 5.332031 -1.140625 5.988281 -1.410156 6.53125 -1.953125 C 7.082031 -2.492188 7.359375 -3.148438 7.359375 -3.921875 C 7.359375 -4.703125 7.082031 -5.359375 6.53125 -5.890625 C 5.988281 -6.429688 5.332031 -6.703125 4.5625 -6.703125 Z M 4.5625 -6.703125 "/></g></g></g><g fill="#ffffff" fill-opacity="1"><g transform="translate(151.135991, 334.072899)"><g><path d="M 7.859375 0 L 6.546875 0 L 2.359375 -5.640625 L 2.359375 0 L 1.03125 0 L 1.03125 -7.859375 L 2.34375 -7.859375 L 6.546875 -2.21875 L 6.546875 -7.859375 L 7.859375 -7.859375 Z M 7.859375 0 "/></g></g></g><g fill="#ffffff" fill-opacity="1"><g transform="translate(163.247492, 334.072899)"><g><path d="M 6.40625 -6.671875 L 3.90625 -6.671875 L 3.90625 0 L 2.578125 0 L 2.578125 -6.671875 L 0.09375 -6.671875 L 0.09375 -7.859375 L 6.40625 -7.859375 Z M 6.40625 -6.671875 "/></g></g></g><g fill="#ffffff" fill-opacity="1"><g transform="translate(172.966404, 334.072899)"><g><path d="M 6.015625 0 L 4.578125 -2.375 C 4.503906 -2.375 4.382812 -2.375 4.21875 -2.375 L 2.359375 -2.375 L 2.359375 0 L 1.03125 0 L 1.03125 -7.859375 L 4.21875 -7.859375 C 5.226562 -7.859375 6.007812 -7.625 6.5625 -7.15625 C 7.113281 -6.6875 7.390625 -6.023438 7.390625 -5.171875 C 7.390625 -4.546875 7.25 -4.015625 6.96875 -3.578125 C 6.6875 -3.148438 6.285156 -2.832031 5.765625 -2.625 L 7.53125 0 Z M 2.359375 -3.5625 L 4.21875 -3.5625 C 5.5 -3.5625 6.140625 -4.085938 6.140625 -5.140625 C 6.140625 -6.160156 5.5 -6.671875 4.21875 -6.671875 L 2.359375 -6.671875 Z M 2.359375 -3.5625 "/></g></g></g><g fill="#ffffff" fill-opacity="1"><g transform="translate(184.302841, 334.072899)"><g><path d="M 6.109375 -1.78125 L 2.140625 -1.78125 L 1.390625 0 L 0.015625 0 L 3.484375 -7.859375 L 4.84375 -7.859375 L 8.28125 0 L 6.859375 0 Z M 5.609375 -2.953125 L 4.125 -6.453125 L 2.640625 -2.953125 Z M 5.609375 -2.953125 "/></g></g></g><g fill="#ffffff" fill-opacity="1"><g transform="translate(195.807768, 334.072899)"><g><path d="M 4.515625 -7.890625 C 5.066406 -7.890625 5.609375 -7.78125 6.140625 -7.5625 C 6.671875 -7.351562 7.125 -7.0625 7.5 -6.6875 L 6.734375 -5.71875 C 6.441406 -6.019531 6.101562 -6.257812 5.71875 -6.4375 C 5.332031 -6.625 4.9375 -6.71875 4.53125 -6.71875 C 3.75 -6.71875 3.085938 -6.445312 2.546875 -5.90625 C 2.003906 -5.375 1.734375 -4.722656 1.734375 -3.953125 C 1.734375 -3.171875 2.003906 -2.507812 2.546875 -1.96875 C 3.085938 -1.4375 3.75 -1.171875 4.53125 -1.171875 C 5.351562 -1.171875 6.085938 -1.484375 6.734375 -2.109375 L 7.515625 -1.234375 C 7.109375 -0.835938 6.632812 -0.519531 6.09375 -0.28125 C 5.5625 -0.0507812 5.019531 0.0625 4.46875 0.0625 C 3.3125 0.0625 2.335938 -0.320312 1.546875 -1.09375 C 0.765625 -1.863281 0.375 -2.8125 0.375 -3.9375 C 0.375 -5.050781 0.773438 -5.988281 1.578125 -6.75 C 2.378906 -7.507812 3.359375 -7.890625 4.515625 -7.890625 Z M 4.515625 -7.890625 "/></g></g></g><g fill="#ffffff" fill-opacity="1"><g transform="translate(206.852152, 334.072899)"><g><path d="M 6.40625 -6.671875 L 3.90625 -6.671875 L 3.90625 0 L 2.578125 0 L 2.578125 -6.671875 L 0.09375 -6.671875 L 0.09375 -7.859375 L 6.40625 -7.859375 Z M 6.40625 -6.671875 "/></g></g></g><g fill="#ffffff" fill-opacity="1"><g transform="translate(216.57106, 334.072899)"><g><path d="M 1.578125 -6.75 C 2.378906 -7.507812 3.367188 -7.890625 4.546875 -7.890625 C 5.722656 -7.890625 6.710938 -7.507812 7.515625 -6.75 C 8.316406 -5.988281 8.71875 -5.046875 8.71875 -3.921875 C 8.71875 -2.804688 8.316406 -1.863281 7.515625 -1.09375 C 6.710938 -0.320312 5.722656 0.0625 4.546875 0.0625 C 3.367188 0.0625 2.378906 -0.320312 1.578125 -1.09375 C 0.773438 -1.863281 0.375 -2.804688 0.375 -3.921875 C 0.375 -5.046875 0.773438 -5.988281 1.578125 -6.75 Z M 4.5625 -6.703125 C 3.78125 -6.703125 3.113281 -6.429688 2.5625 -5.890625 C 2.007812 -5.359375 1.734375 -4.703125 1.734375 -3.921875 C 1.734375 -3.148438 2.007812 -2.492188 2.5625 -1.953125 C 3.125 -1.410156 3.789062 -1.140625 4.5625 -1.140625 C 5.332031 -1.140625 5.988281 -1.410156 6.53125 -1.953125 C 7.082031 -2.492188 7.359375 -3.148438 7.359375 -3.921875 C 7.359375 -4.703125 7.082031 -5.359375 6.53125 -5.890625 C 5.988281 -6.429688 5.332031 -6.703125 4.5625 -6.703125 Z M 4.5625 -6.703125 "/></g></g></g><g fill="#ffffff" fill-opacity="1"><g transform="translate(228.884758, 334.072899)"><g><path d="M 6.015625 0 L 4.578125 -2.375 C 4.503906 -2.375 4.382812 -2.375 4.21875 -2.375 L 2.359375 -2.375 L 2.359375 0 L 1.03125 0 L 1.03125 -7.859375 L 4.21875 -7.859375 C 5.226562 -7.859375 6.007812 -7.625 6.5625 -7.15625 C 7.113281 -6.6875 7.390625 -6.023438 7.390625 -5.171875 C 7.390625 -4.546875 7.25 -4.015625 6.96875 -3.578125 C 6.6875 -3.148438 6.285156 -2.832031 5.765625 -2.625 L 7.53125 0 Z M 2.359375 -3.5625 L 4.21875 -3.5625 C 5.5 -3.5625 6.140625 -4.085938 6.140625 -5.140625 C 6.140625 -6.160156 5.5 -6.671875 4.21875 -6.671875 L 2.359375 -6.671875 Z M 2.359375 -3.5625 "/></g></g></g><g fill="#ffffff" fill-opacity="1"><g transform="translate(240.221198, 334.072899)"><g><path d="M 3.625 -7.921875 C 4.632812 -7.921875 5.550781 -7.648438 6.375 -7.109375 L 5.8125 -5.9375 C 5.019531 -6.425781 4.253906 -6.671875 3.515625 -6.671875 C 3.117188 -6.671875 2.804688 -6.597656 2.578125 -6.453125 C 2.347656 -6.316406 2.234375 -6.113281 2.234375 -5.84375 C 2.234375 -5.582031 2.335938 -5.359375 2.546875 -5.171875 C 2.753906 -4.992188 3.015625 -4.863281 3.328125 -4.78125 C 3.648438 -4.695312 3.992188 -4.585938 4.359375 -4.453125 C 4.722656 -4.316406 5.0625 -4.175781 5.375 -4.03125 C 5.695312 -3.882812 5.957031 -3.65625 6.15625 -3.34375 C 6.363281 -3.039062 6.46875 -2.664062 6.46875 -2.21875 C 6.46875 -1.53125 6.191406 -0.976562 5.640625 -0.5625 C 5.085938 -0.15625 4.375 0.046875 3.5 0.046875 C 2.90625 0.046875 2.328125 -0.0625 1.765625 -0.28125 C 1.203125 -0.507812 0.710938 -0.816406 0.296875 -1.203125 L 0.859375 -2.34375 C 1.253906 -1.976562 1.691406 -1.695312 2.171875 -1.5 C 2.648438 -1.300781 3.101562 -1.203125 3.53125 -1.203125 C 3.988281 -1.203125 4.347656 -1.285156 4.609375 -1.453125 C 4.867188 -1.617188 5 -1.851562 5 -2.15625 C 5 -2.425781 4.894531 -2.648438 4.6875 -2.828125 C 4.476562 -3.015625 4.210938 -3.148438 3.890625 -3.234375 C 3.578125 -3.328125 3.238281 -3.429688 2.875 -3.546875 C 2.507812 -3.671875 2.164062 -3.800781 1.84375 -3.9375 C 1.53125 -4.082031 1.269531 -4.304688 1.0625 -4.609375 C 0.851562 -4.921875 0.75 -5.296875 0.75 -5.734375 C 0.75 -6.398438 1.007812 -6.929688 1.53125 -7.328125 C 2.0625 -7.722656 2.757812 -7.921875 3.625 -7.921875 Z M 3.625 -7.921875 "/></g></g></g></svg>