<svg xmlns="http://www.w3.org/2000/svg" xmlns:xlink="http://www.w3.org/1999/xlink" width="480" zoomAndPan="magnify" viewBox="0 0 360 359.999987" height="480" preserveAspectRatio="xMidYMid meet" version="1.0"><defs><clipPath id="35407d609e"><path d="M 6.273438 91 L 169 91 L 169 268 L 6.273438 268 Z M 6.273438 91 " clip-rule="nonzero"/></clipPath><clipPath id="58a994c8b6"><path d="M 6.273438 91 L 169 91 L 169 268 L 6.273438 268 Z M 6.273438 91 " clip-rule="nonzero"/></clipPath></defs><g clip-path="url(#35407d609e)"><path fill="#8bcb8f" d="M 98.226562 145.789062 C 98.226562 125.183594 106.015625 106.414062 118.820312 92.25 L 118.375 91.863281 L 24.066406 91.863281 C 14.226562 91.863281 6.273438 99.832031 6.273438 109.664062 L 6.273438 215.4375 C 6.273438 225.265625 14.226562 233.238281 24.066406 233.238281 L 128.519531 233.238281 L 168.5625 267.144531 L 168.5625 225.574219 L 168.621094 225.128906 C 128.988281 220.519531 98.226562 186.75 98.226562 145.789062 Z M 98.226562 145.789062 " fill-opacity="1" fill-rule="nonzero"/></g><path fill="#8bcb8f" d="M 194.585938 131.210938 C 194.03125 119.964844 189.40625 110.996094 181.507812 108.164062 C 169.007812 103.691406 153.101562 116.300781 145.949219 136.320312 C 138.800781 156.316406 143.152344 176.171875 155.648438 180.667969 C 168.148438 185.140625 184.054688 172.53125 191.207031 152.511719 C 193.230469 146.789062 194.339844 141.097656 194.585938 135.765625 Z M 194.585938 131.210938 " fill-opacity="1" fill-rule="nonzero"/><path fill="#8bcb8f" d="M 346.652344 87.140625 C 343.4375 74.839844 335.121094 65.203125 324.148438 60.648438 L 304.914062 52.625 C 294.300781 48.207031 281.71875 54.234375 276.8125 66.089844 L 268.027344 87.222656 C 266.699219 90.445312 266.058594 93.75 266.058594 96.972656 C 266.058594 105.609375 270.605469 113.464844 278.335938 116.6875 C 286.679688 120.160156 291.75 128.988281 291.167969 138.929688 C 290.476562 150.734375 288.09375 167.285156 281.136719 184.085938 C 274.152344 200.886719 264.121094 214.269531 256.277344 223.074219 C 251.59375 228.320312 245.304688 231.183594 239.066406 231.183594 C 236.488281 231.183594 233.914062 230.710938 231.472656 229.683594 C 220.886719 225.265625 208.304688 231.292969 203.371094 243.152344 L 194.613281 264.285156 C 189.710938 276.140625 194.308594 289.332031 204.925781 293.746094 L 224.15625 301.746094 C 235.160156 306.328125 247.824219 305.410156 258.800781 299.023438 C 277.285156 288.222656 304.582031 262.976562 329.027344 204.023438 C 353.46875 145.097656 352.054688 107.886719 346.652344 87.140625 Z M 346.652344 87.140625 " fill-opacity="1" fill-rule="nonzero"/><g clip-path="url(#58a994c8b6)"><path fill="#8ecaef" d="M 24.066406 233.238281 C 14.226562 233.238281 6.273438 225.265625 6.273438 215.4375 L 6.273438 109.664062 C 6.273438 99.832031 14.226562 91.863281 24.066406 91.863281 L 118.375 91.863281 L 118.820312 92.25 C 106.015625 106.414062 98.226562 125.183594 98.226562 145.789062 C 98.226562 186.75 128.988281 220.519531 168.621094 225.128906 L 168.5625 225.574219 L 168.5625 267.144531 L 128.519531 233.238281 Z M 24.066406 233.238281 " fill-opacity="1" fill-rule="nonzero"/></g><path fill="#ffc05a" d="M 194.585938 131.210938 L 194.585938 135.765625 C 194.339844 141.097656 193.230469 146.789062 191.207031 152.511719 C 184.054688 172.53125 168.148438 185.140625 155.648438 180.667969 C 143.152344 176.171875 138.800781 156.316406 145.949219 136.320312 C 153.101562 116.300781 169.007812 103.691406 181.507812 108.164062 C 189.40625 110.996094 194.03125 119.964844 194.585938 131.210938 Z M 194.585938 131.210938 " fill-opacity="1" fill-rule="nonzero"/><path fill="#ffc05a" d="M 177.960938 228.460938 C 174.800781 228.460938 171.550781 228.269531 168.296875 227.886719 C 126.773438 223.058594 95.457031 187.765625 95.457031 145.792969 C 95.457031 125.261719 103.023438 105.585938 116.761719 90.390625 C 132.335938 73.066406 154.636719 63.121094 177.960938 63.121094 C 199.476562 63.121094 219.835938 71.371094 235.285156 86.339844 C 240.402344 91.238281 256.1875 109.792969 244.015625 142.351562 C 232.675781 172.710938 215.476562 173.328125 214.75 173.339844 C 202.082031 173.339844 191.816406 163.050781 191.816406 150.398438 L 191.816406 102.941406 C 191.816406 101.40625 193.058594 100.164062 194.585938 100.164062 C 196.117188 100.164062 197.359375 101.40625 197.359375 102.941406 L 197.359375 150.398438 C 197.359375 159.984375 205.140625 167.785156 214.707031 167.785156 C 214.769531 167.78125 228.933594 166.894531 238.828125 140.402344 C 249.808594 111.03125 235.953125 94.660156 231.445312 90.34375 C 217.019531 76.367188 198.03125 68.675781 177.960938 68.675781 C 156.210938 68.675781 135.40625 77.945312 120.878906 94.109375 C 108.058594 108.289062 101 126.644531 101 145.789062 C 101 184.941406 130.207031 217.859375 168.9375 222.367188 C 171.980469 222.722656 175.011719 222.902344 177.960938 222.902344 C 220.398438 222.902344 254.917969 188.3125 254.917969 145.789062 C 254.917969 144.253906 256.160156 143.011719 257.691406 143.011719 C 259.222656 143.011719 260.460938 144.253906 260.460938 145.789062 C 260.460938 191.378906 223.449219 228.460938 177.960938 228.460938 Z M 177.960938 228.460938 " fill-opacity="1" fill-rule="nonzero"/><path fill="#2f84b9" d="M 81.046875 130.683594 L 38.421875 130.683594 C 36.890625 130.683594 35.652344 129.441406 35.652344 127.90625 C 35.652344 126.371094 36.890625 125.128906 38.421875 125.128906 L 81.046875 125.128906 C 82.574219 125.128906 83.816406 126.371094 83.816406 127.90625 C 83.816406 129.441406 82.574219 130.683594 81.046875 130.683594 Z M 81.046875 130.683594 " fill-opacity="1" fill-rule="nonzero"/><path fill="#2f84b9" d="M 87.417969 172.253906 L 23.097656 172.253906 C 21.566406 172.253906 20.324219 171.011719 20.324219 169.476562 C 20.324219 167.941406 21.566406 166.699219 23.097656 166.699219 L 87.417969 166.699219 C 88.949219 166.699219 90.191406 167.941406 90.191406 169.476562 C 90.191406 171.011719 88.949219 172.253906 87.417969 172.253906 Z M 87.417969 172.253906 " fill-opacity="1" fill-rule="nonzero"/></svg>