<?xml version="1.0" encoding="UTF-8"?>
<svg xmlns="http://www.w3.org/2000/svg" xmlns:xlink="http://www.w3.org/1999/xlink" version="1.1" viewBox="0 0 480 480">
  <defs>
    <style>
      .cls-1 {
        fill: none;
      }

      .cls-2 {
        fill: #e6e6e6;
      }

      .cls-3 {
        fill: #f2f1f6;
      }

      .cls-4 {
        fill: #ccc;
      }

      .cls-5 {
        fill: #c63226;
      }

      .cls-6 {
        fill: #a6a6a6;
      }

      .cls-7 {
        clip-path: url(#clippath-1);
      }

      .cls-8 {
        clip-path: url(#clippath-2);
      }

      .cls-9 {
        fill: #f2f2f2;
      }

      .cls-10 {
        fill: #ff4560;
      }

      .cls-11 {
        clip-path: url(#clippath);
      }
    </style>
    <clipPath id="clippath">
      <rect class="cls-1" x="32.2" y="142.4" width="421" height="308.9"/>
    </clipPath>
    <clipPath id="clippath-1">
      <rect class="cls-1" x="32.2" y="49.8" width="421" height="84"/>
    </clipPath>
    <clipPath id="clippath-2">
      <rect class="cls-1" x="32.2" y="132.5" width="421" height="309.3"/>
    </clipPath>
  </defs>
  <!-- Generator: Adobe Illustrator 28.7.0, SVG Export Plug-In . SVG Version: 1.2.0 Build 45)  -->
  <g>
    <g id="Layer_1">
      <g class="cls-11">
        <path class="cls-4" d="M32.2,143v282.7c0,14.2,11.5,25.7,25.7,25.7h369.7c14.2,0,25.7-11.5,25.7-25.7V143H32.2"/>
      </g>
      <g class="cls-7">
        <path class="cls-10" d="M401.8,112.1c-11.3,0-20.5-9.2-20.5-20.6s9.2-20.6,20.5-20.6,20.5,9.2,20.5,20.6-9.2,20.6-20.5,20.6ZM237.5,112.1c-11.3,0-20.5-9.2-20.5-20.6s9.2-20.6,20.5-20.6,20.5,9.2,20.5,20.6-9.2,20.6-20.5,20.6ZM83.5,112.1c-11.3,0-20.5-9.2-20.5-20.6s9.2-20.6,20.5-20.6,20.5,9.2,20.5,20.6-9.2,20.6-20.5,20.6ZM427.5,50.5H57.8c-14.2,0-25.7,11.5-25.7,25.7v56.5h421v-56.5c0-14.2-11.5-25.7-25.7-25.7"/>
      </g>
      <g class="cls-8">
        <path class="cls-3" d="M32.2,132.7v282.7c0,14.2,11.5,25.7,25.7,25.7h369.7c14.2,0,25.7-11.5,25.7-25.7V132.7H32.2"/>
      </g>
      <path class="cls-5" d="M83.5,112.1c-11.3,0-20.5-9.2-20.5-20.6s9.2-20.6,20.5-20.6,20.5,9.2,20.5,20.6-9.2,20.6-20.5,20.6ZM83.5,60.8c-17,0-30.8,13.8-30.8,30.8s13.8,30.8,30.8,30.8,30.8-13.8,30.8-30.8-13.8-30.8-30.8-30.8"/>
      <path class="cls-5" d="M237.5,112.1c-11.3,0-20.5-9.2-20.5-20.6s9.2-20.6,20.5-20.6,20.5,9.2,20.5,20.6-9.2,20.6-20.5,20.6ZM237.5,60.8c-17,0-30.8,13.8-30.8,30.8s13.8,30.8,30.8,30.8,30.8-13.8,30.8-30.8-13.8-30.8-30.8-30.8"/>
      <path class="cls-5" d="M401.8,112.1c-11.3,0-20.5-9.2-20.5-20.6s9.2-20.6,20.5-20.6,20.5,9.2,20.5,20.6-9.2,20.6-20.5,20.6ZM401.8,60.8c-17,0-30.8,13.8-30.8,30.8s13.8,30.8,30.8,30.8,30.8-13.8,30.8-30.8-13.8-30.8-30.8-30.8"/>
      <path class="cls-2" d="M67.7,44.4v46.6c0,8.7,7,15.8,15.7,15.8V28.7c-8.7,0-15.7,7.1-15.7,15.8"/>
      <path class="cls-9" d="M83.5,28.7v78.1c8.7,0,15.8-7.1,15.8-15.8v-46.6c0-8.7-7.1-15.8-15.8-15.8"/>
      <path class="cls-2" d="M221.7,44.4v46.6c0,8.7,7,15.8,15.7,15.8V28.7c-8.7,0-15.7,7.1-15.7,15.8"/>
      <path class="cls-9" d="M237.5,28.7v78.1c8.7,0,15.7-7.1,15.7-15.8v-46.6c0-8.7-7-15.8-15.7-15.8"/>
      <path class="cls-2" d="M386,44.4v46.6c0,8.7,7.1,15.8,15.7,15.8V28.7c-8.7,0-15.7,7.1-15.7,15.8"/>
      <path class="cls-9" d="M401.8,28.7v78.1c8.7,0,15.7-7.1,15.7-15.8v-46.6c0-8.7-7-15.8-15.7-15.8"/>
      <path class="cls-4" d="M122.4,219.2h-57v-45h57v45"/>
      <path class="cls-4" d="M194.6,219.2h-57v-45h57v45"/>
      <path class="cls-4" d="M266.9,219.2h-57v-45h57v45"/>
      <path class="cls-4" d="M339.1,219.2h-57v-45h57v45"/>
      <path class="cls-4" d="M411.3,219.2h-57v-45h57v45"/>
      <path class="cls-4" d="M122.4,276.2h-57v-45h57v45"/>
      <path class="cls-4" d="M194.6,276.2h-57v-45h57v45"/>
      <path class="cls-4" d="M266.9,276.2h-57v-45h57v45"/>
      <path class="cls-4" d="M339.1,276.2h-57v-45h57v45"/>
      <path class="cls-4" d="M411.3,276.2h-57v-45h57v45"/>
      <path class="cls-4" d="M122.4,333.2h-57v-44.9h57v44.9"/>
      <path class="cls-4" d="M194.6,333.2h-57v-44.9h57v44.9"/>
      <path class="cls-4" d="M266.9,333.2h-57v-44.9h57v44.9"/>
      <path class="cls-4" d="M339.1,333.2h-57v-44.9h57v44.9"/>
      <path class="cls-4" d="M411.3,333.2h-57v-44.9h57v44.9"/>
      <path class="cls-4" d="M122.4,390.3h-57v-45h57v45"/>
      <path class="cls-4" d="M194.6,390.3h-57v-45h57v45"/>
      <path class="cls-4" d="M266.9,390.3h-57v-45h57v45"/>
      <path class="cls-4" d="M339.1,390.3h-57v-45h57v45"/>
      <path class="cls-4" d="M411.3,390.3h-57v-45h57v45"/>
      <path class="cls-10" d="M361.3,217.1l-13.7-13.7-39.1,39.2-16.3-16.3-13.7,13.7,24.9,24.7,5.3,5,52.5-52.6"/>
      <path class="cls-6" d="M69.8,145.5h-5.9v17.4h-5.5v-17.4h-5.9v-5.5h17.3v5.5Z"/>
      <path class="cls-6" d="M79.9,144.8c2.5,0,4.6.8,6.4,2.6,1.8,1.8,2.7,3.9,2.7,6.4,0,2.5-.8,4.6-2.6,6.4-1.8,1.8-3.9,2.7-6.4,2.7-2.5,0-4.6-.8-6.4-2.6-1.8-1.8-2.7-3.9-2.7-6.4,0-2.5.8-4.6,2.6-6.4,1.8-1.8,3.9-2.7,6.4-2.7ZM83.1,157c.9-.9,1.3-1.9,1.3-3.2s-.4-2.3-1.3-3.2c-.9-.8-1.9-1.3-3.2-1.3s-2.3.4-3.1,1.3c-.9.9-1.3,2-1.3,3.2s.4,2.3,1.3,3.1c.9.9,1.9,1.3,3.2,1.3,1.3,0,2.3-.5,3.1-1.3Z"/>
      <path class="cls-6" d="M104.6,162.9v-2.1c-1.7,1.4-3.6,2.1-5.7,2.1-2.5,0-4.6-.8-6.4-2.6-1.8-1.8-2.7-3.9-2.7-6.4,0-2.5.8-4.6,2.6-6.4,1.8-1.8,3.9-2.7,6.4-2.7,2.2,0,4.1.7,5.8,2.1v-8.5h4.9v24.5s-4.9,0-4.9,0ZM102,157c.9-.9,1.3-1.9,1.3-3.2,0-1.3-.5-2.3-1.3-3.2-.9-.8-1.9-1.3-3.2-1.3s-2.3.4-3.2,1.3c-.9,1-1.3,2-1.3,3.2,0,1.2.4,2.3,1.3,3.1.9.9,1.9,1.3,3.2,1.3,1.3,0,2.3-.5,3.1-1.3Z"/>
      <path class="cls-6" d="M124.6,144.7h4.9v18.2h-4.9v-2c-1,1.3-2.5,2-4.6,2-2.5,0-4.6-.9-6.4-2.6-1.8-1.8-2.7-3.9-2.7-6.4,0-2.5.8-4.6,2.6-6.4,1.8-1.8,3.9-2.7,6.4-2.7,2.1,0,3.6.7,4.7,2v-2ZM123.1,156.9c.9-.9,1.3-1.9,1.3-3.1s-.4-2.3-1.3-3.2c-.9-.9-1.9-1.3-3.1-1.3-1.3,0-2.3.4-3.2,1.3-.9.9-1.3,1.9-1.3,3.1s.4,2.3,1.3,3.2c.9.9,1.9,1.3,3.2,1.3,1.3,0,2.3-.5,3.1-1.3Z"/>
      <path class="cls-6" d="M148.6,144.8l-7.1,18.9c-.8,1.9-2,3.4-3.7,4.5-1.7,1.1-3.5,1.6-5.5,1.6v-4.9c.7,0,1.5-.1,2.2-.5,1-.5,1.8-1.2,2.3-2.2l1-2.7-6.2-14.7h5.4l3.3,7.9,2.9-7.9h5.4Z"/>
    </g>
  </g>
</svg>